<svg xmlns="http://www.w3.org/2000/svg" xmlns:xlink="http://www.w3.org/1999/xlink" width="360" zoomAndPan="magnify" viewBox="0 0 270 195.000001" height="260" preserveAspectRatio="xMidYMid meet" version="1.0"><defs><g/><clipPath id="1a4f9b4ea3"><path d="M 56.910156 47.164062 L 209.464844 47.164062 L 209.464844 81.328125 L 56.910156 81.328125 Z M 56.910156 47.164062 " clip-rule="nonzero"/></clipPath><clipPath id="850eed3db2"><path d="M 192.285156 47.164062 C 201.71875 47.164062 209.367188 54.8125 209.367188 64.246094 C 209.367188 73.679688 201.71875 81.328125 192.285156 81.328125 L 73.996094 81.328125 C 64.558594 81.328125 56.910156 73.679688 56.910156 64.246094 C 56.910156 54.8125 64.558594 47.164062 73.996094 47.164062 Z M 192.285156 47.164062 " clip-rule="nonzero"/></clipPath><clipPath id="8b0fb58c3d"><path d="M 120.101562 126.90625 L 146.964844 126.90625 L 146.964844 155 L 120.101562 155 Z M 120.101562 126.90625 " clip-rule="nonzero"/></clipPath><clipPath id="584d8cd7ee"><path d="M 0.6875 0 L 5 0 L 5 10.285156 L 0.6875 10.285156 Z M 0.6875 0 " clip-rule="nonzero"/></clipPath><clipPath id="4ebf0e9fed"><path d="M 0.6875 1 L 4 1 L 4 10 L 0.6875 10 Z M 0.6875 1 " clip-rule="nonzero"/></clipPath><clipPath id="1097d04f9a"><path d="M 0.6875 1 L 3 1 L 3 5 L 0.6875 5 Z M 0.6875 1 " clip-rule="nonzero"/></clipPath><clipPath id="ac1da2c961"><path d="M 3.019531 0 L 24 0 L 24 10.285156 L 3.019531 10.285156 Z M 3.019531 0 " clip-rule="nonzero"/></clipPath><clipPath id="69a830b133"><path d="M 21.851562 0 L 43 0 L 43 10.285156 L 21.851562 10.285156 Z M 21.851562 0 " clip-rule="nonzero"/></clipPath><clipPath id="be1e720a9f"><path d="M 41.085938 0 L 62 0 L 62 10.285156 L 41.085938 10.285156 Z M 41.085938 0 " clip-rule="nonzero"/></clipPath><clipPath id="861211403e"><path d="M 60.949219 0 L 82 0 L 82 10.285156 L 60.949219 10.285156 Z M 60.949219 0 " clip-rule="nonzero"/></clipPath><clipPath id="156f74e309"><path d="M 80.363281 0 L 101 0 L 101 10.285156 L 80.363281 10.285156 Z M 80.363281 0 " clip-rule="nonzero"/></clipPath><clipPath id="b1a113edad"><path d="M 100.046875 0 L 121 0 L 121 10.285156 L 100.046875 10.285156 Z M 100.046875 0 " clip-rule="nonzero"/></clipPath><clipPath id="485bf32be2"><path d="M 119.460938 0 L 141 0 L 141 10.285156 L 119.460938 10.285156 Z M 119.460938 0 " clip-rule="nonzero"/></clipPath><clipPath id="a2718b5e2e"><path d="M 139.144531 0 L 160 0 L 160 10.285156 L 139.144531 10.285156 Z M 139.144531 0 " clip-rule="nonzero"/></clipPath><clipPath id="049307f9e1"><path d="M 158.558594 0 L 180 0 L 180 10.285156 L 158.558594 10.285156 Z M 158.558594 0 " clip-rule="nonzero"/></clipPath><clipPath id="162db88c90"><path d="M 178.238281 0 L 199 0 L 199 10.285156 L 178.238281 10.285156 Z M 178.238281 0 " clip-rule="nonzero"/></clipPath><clipPath id="0d32e3d065"><path d="M 197.65625 0 L 219 0 L 219 10.285156 L 197.65625 10.285156 Z M 197.65625 0 " clip-rule="nonzero"/></clipPath><clipPath id="5683cabc5b"><path d="M 217.335938 0 L 238 0 L 238 10.285156 L 217.335938 10.285156 Z M 217.335938 0 " clip-rule="nonzero"/></clipPath><clipPath id="ff5e70e72d"><path d="M 236.753906 0 L 258 0 L 258 10.285156 L 236.753906 10.285156 Z M 236.753906 0 " clip-rule="nonzero"/></clipPath><clipPath id="a5ca8c6fac"><path d="M 256.433594 0 L 269.308594 0 L 269.308594 10.285156 L 256.433594 10.285156 Z M 256.433594 0 " clip-rule="nonzero"/></clipPath><clipPath id="7f30584c09"><path d="M 257 1 L 269.308594 1 L 269.308594 10 L 257 10 Z M 257 1 " clip-rule="nonzero"/></clipPath><clipPath id="c8ff61a352"><path d="M 257 1 L 269.308594 1 L 269.308594 5 L 257 5 Z M 257 1 " clip-rule="nonzero"/></clipPath><clipPath id="7bae88110c"><path d="M 0.6875 183.722656 L 0.890625 183.722656 L 0.890625 194.003906 L 0.6875 194.003906 Z M 0.6875 183.722656 " clip-rule="nonzero"/></clipPath><clipPath id="019e9006e4"><path d="M 0.6875 194 L 11 194 L 11 194.003906 L 0.6875 194.003906 Z M 0.6875 194 " clip-rule="nonzero"/></clipPath><clipPath id="c05189cfcd"><path d="M 0.6875 183.722656 L 20.425781 183.722656 L 20.425781 194.003906 L 0.6875 194.003906 Z M 0.6875 183.722656 " clip-rule="nonzero"/></clipPath><clipPath id="046b5b19f8"><path d="M 0.6875 184 L 20 184 L 20 193 L 0.6875 193 Z M 0.6875 184 " clip-rule="nonzero"/></clipPath><clipPath id="79bc316975"><path d="M 8.808594 194 L 30 194 L 30 194.003906 L 8.808594 194.003906 Z M 8.808594 194 " clip-rule="nonzero"/></clipPath><clipPath id="293477170f"><path d="M 19 183.722656 L 39.660156 183.722656 L 39.660156 194.003906 L 19 194.003906 Z M 19 183.722656 " clip-rule="nonzero"/></clipPath><clipPath id="13a33f2bd2"><path d="M 27.640625 194 L 49 194 L 49 194.003906 L 27.640625 194.003906 Z M 27.640625 194 " clip-rule="nonzero"/></clipPath><clipPath id="a5fc51fe31"><path d="M 37 183.722656 L 58.492188 183.722656 L 58.492188 194.003906 L 37 194.003906 Z M 37 183.722656 " clip-rule="nonzero"/></clipPath><clipPath id="7065f1a27f"><path d="M 46.878906 194 L 68 194 L 68 194.003906 L 46.878906 194.003906 Z M 46.878906 194 " clip-rule="nonzero"/></clipPath><clipPath id="fb37fd7ab1"><path d="M 57 183.722656 L 77.726562 183.722656 L 77.726562 194.003906 L 57 194.003906 Z M 57 183.722656 " clip-rule="nonzero"/></clipPath><clipPath id="d13741bb0c"><path d="M 66.738281 194 L 88 194 L 88 194.003906 L 66.738281 194.003906 Z M 66.738281 194 " clip-rule="nonzero"/></clipPath><clipPath id="7481362335"><path d="M 77 183.722656 L 97.589844 183.722656 L 97.589844 194.003906 L 77 194.003906 Z M 77 183.722656 " clip-rule="nonzero"/></clipPath><clipPath id="d70c602206"><path d="M 86.15625 194 L 107 194 L 107 194.003906 L 86.15625 194.003906 Z M 86.15625 194 " clip-rule="nonzero"/></clipPath><clipPath id="0515c8e32e"><path d="M 96 183.722656 L 117.003906 183.722656 L 117.003906 194.003906 L 96 194.003906 Z M 96 183.722656 " clip-rule="nonzero"/></clipPath><clipPath id="e378178022"><path d="M 105.835938 194 L 127 194 L 127 194.003906 L 105.835938 194.003906 Z M 105.835938 194 " clip-rule="nonzero"/></clipPath><clipPath id="cc36950873"><path d="M 116 183.722656 L 136.6875 183.722656 L 136.6875 194.003906 L 116 194.003906 Z M 116 183.722656 " clip-rule="nonzero"/></clipPath><clipPath id="2727932281"><path d="M 125.253906 194 L 146 194 L 146 194.003906 L 125.253906 194.003906 Z M 125.253906 194 " clip-rule="nonzero"/></clipPath><clipPath id="7b0ce4ece9"><path d="M 135 183.722656 L 156.101562 183.722656 L 156.101562 194.003906 L 135 194.003906 Z M 135 183.722656 " clip-rule="nonzero"/></clipPath><clipPath id="e44e8bc4e1"><path d="M 144.933594 194 L 166 194 L 166 194.003906 L 144.933594 194.003906 Z M 144.933594 194 " clip-rule="nonzero"/></clipPath><clipPath id="7e21e4f290"><path d="M 155 183.722656 L 175.785156 183.722656 L 175.785156 194.003906 L 155 194.003906 Z M 155 183.722656 " clip-rule="nonzero"/></clipPath><clipPath id="d28e7a8d10"><path d="M 164.347656 194 L 185 194 L 185 194.003906 L 164.347656 194.003906 Z M 164.347656 194 " clip-rule="nonzero"/></clipPath><clipPath id="5c51604e02"><path d="M 174 183.722656 L 195.199219 183.722656 L 195.199219 194.003906 L 174 194.003906 Z M 174 183.722656 " clip-rule="nonzero"/></clipPath><clipPath id="25eddb07e2"><path d="M 184.03125 194 L 205 194 L 205 194.003906 L 184.03125 194.003906 Z M 184.03125 194 " clip-rule="nonzero"/></clipPath><clipPath id="6849ef3634"><path d="M 194 183.722656 L 214.882812 183.722656 L 214.882812 194.003906 L 194 194.003906 Z M 194 183.722656 " clip-rule="nonzero"/></clipPath><clipPath id="dae0c46cd8"><path d="M 203.445312 194 L 225 194 L 225 194.003906 L 203.445312 194.003906 Z M 203.445312 194 " clip-rule="nonzero"/></clipPath><clipPath id="a8f261db33"><path d="M 213 183.722656 L 234.296875 183.722656 L 234.296875 194.003906 L 213 194.003906 Z M 213 183.722656 " clip-rule="nonzero"/></clipPath><clipPath id="e3cde1e5d7"><path d="M 223.128906 194 L 244 194 L 244 194.003906 L 223.128906 194.003906 Z M 223.128906 194 " clip-rule="nonzero"/></clipPath><clipPath id="61dc362c9f"><path d="M 233 183.722656 L 253.976562 183.722656 L 253.976562 194.003906 L 233 194.003906 Z M 233 183.722656 " clip-rule="nonzero"/></clipPath><clipPath id="9a8627ead3"><path d="M 242.546875 194 L 264 194 L 264 194.003906 L 242.546875 194.003906 Z M 242.546875 194 " clip-rule="nonzero"/></clipPath><clipPath id="fb1d25b733"><path d="M 252 183.722656 L 269.308594 183.722656 L 269.308594 194.003906 L 252 194.003906 Z M 252 183.722656 " clip-rule="nonzero"/></clipPath><clipPath id="b5fb2eb3fd"><path d="M 253 184 L 269.308594 184 L 269.308594 193 L 253 193 Z M 253 184 " clip-rule="nonzero"/></clipPath><clipPath id="54e3b9bf3f"><path d="M 254 185 L 269.308594 185 L 269.308594 188 L 254 188 Z M 254 185 " clip-rule="nonzero"/></clipPath><clipPath id="8d77a222ca"><path d="M 262.226562 194 L 269.308594 194 L 269.308594 194.003906 L 262.226562 194.003906 Z M 262.226562 194 " clip-rule="nonzero"/></clipPath></defs><g clip-path="url(#1a4f9b4ea3)"><g clip-path="url(#850eed3db2)"><path fill="#f85041" d="M 56.910156 47.164062 L 209.332031 47.164062 L 209.332031 81.328125 L 56.910156 81.328125 Z M 56.910156 47.164062 " fill-opacity="1" fill-rule="nonzero"/></g></g><g clip-path="url(#8b0fb58c3d)"><path fill="#ffffff" d="M 147.1875 136.730469 C 147.1875 138.054688 146.929688 139.339844 146.417969 140.550781 C 145.925781 141.714844 145.21875 142.765625 144.316406 143.664062 C 143.417969 144.566406 142.371094 145.273438 141.203125 145.769531 C 139.992188 146.28125 138.710938 146.542969 137.386719 146.542969 L 123.445312 146.542969 L 123.445312 151.324219 L 140.085938 151.324219 L 140.085938 154.667969 L 120.101562 154.667969 L 120.101562 135.054688 L 134.984375 135.054688 C 135.496094 134.359375 136.328125 133.898438 137.265625 133.898438 C 138.824219 133.898438 140.085938 135.164062 140.085938 136.722656 C 140.085938 138.28125 138.824219 139.542969 137.265625 139.542969 C 136.335938 139.542969 135.507812 139.089844 134.996094 138.394531 L 123.445312 138.394531 L 123.445312 143.199219 L 137.386719 143.199219 C 140.953125 143.199219 143.851562 140.300781 143.851562 136.738281 C 143.851562 133.171875 140.953125 130.273438 137.386719 130.273438 L 120.152344 130.273438 L 120.152344 126.929688 L 137.386719 126.929688 C 138.710938 126.929688 139.992188 127.1875 141.203125 127.699219 C 142.371094 128.195312 143.417969 128.902344 144.320312 129.800781 C 145.21875 130.699219 145.925781 131.75 146.417969 132.917969 C 146.929688 134.125 147.1875 135.410156 147.1875 136.730469 Z M 147.1875 136.730469 " fill-opacity="1" fill-rule="nonzero"/></g><g fill="#ffffff" fill-opacity="1"><g transform="translate(92.957588, 170.266903)"><g><path d="M 1.546875 -2.078125 L 1.546875 -0.78125 L 3.8125 -0.78125 L 3.8125 0 L 0.609375 0 L 0.609375 -4.734375 L 3.75 -4.734375 L 3.75 -3.953125 L 1.546875 -3.953125 L 1.546875 -2.84375 L 3.484375 -2.84375 L 3.484375 -2.078125 Z M 1.546875 -2.078125 "/></g></g><g transform="translate(97.023182, 170.266903)"><g><path d="M 0.515625 0 L 0.515625 -3.5625 L 1.375 -3.5625 L 1.375 -3.09375 L 1.4375 -3.078125 C 1.5625 -3.265625 1.703125 -3.40625 1.859375 -3.5 C 2.015625 -3.59375 2.210938 -3.640625 2.453125 -3.640625 C 2.722656 -3.640625 2.9375 -3.582031 3.09375 -3.46875 C 3.257812 -3.363281 3.382812 -3.210938 3.46875 -3.015625 L 3.53125 -3.015625 C 3.632812 -3.222656 3.773438 -3.378906 3.953125 -3.484375 C 4.128906 -3.585938 4.347656 -3.640625 4.609375 -3.640625 C 5.347656 -3.640625 5.71875 -3.226562 5.71875 -2.40625 L 5.71875 0 L 4.8125 0 L 4.8125 -2.28125 C 4.8125 -2.488281 4.769531 -2.640625 4.6875 -2.734375 C 4.613281 -2.828125 4.484375 -2.875 4.296875 -2.875 C 3.804688 -2.875 3.5625 -2.546875 3.5625 -1.890625 L 3.5625 0 L 2.671875 0 L 2.671875 -2.28125 C 2.671875 -2.488281 2.628906 -2.640625 2.546875 -2.734375 C 2.460938 -2.828125 2.328125 -2.875 2.140625 -2.875 C 1.910156 -2.875 1.726562 -2.796875 1.59375 -2.640625 C 1.46875 -2.492188 1.40625 -2.25 1.40625 -1.90625 L 1.40625 0 Z M 0.515625 0 "/></g></g><g transform="translate(103.194347, 170.266903)"><g><path d="M 0.515625 1.453125 L 0.515625 -3.5625 L 1.40625 -3.5625 L 1.40625 -3.109375 L 1.484375 -3.09375 C 1.585938 -3.269531 1.726562 -3.40625 1.90625 -3.5 C 2.082031 -3.59375 2.285156 -3.640625 2.515625 -3.640625 C 2.804688 -3.640625 3.054688 -3.570312 3.265625 -3.4375 C 3.484375 -3.300781 3.648438 -3.09375 3.765625 -2.8125 C 3.890625 -2.53125 3.953125 -2.1875 3.953125 -1.78125 C 3.953125 -1.375 3.890625 -1.03125 3.765625 -0.75 C 3.640625 -0.476562 3.460938 -0.273438 3.234375 -0.140625 C 3.015625 -0.00390625 2.757812 0.0625 2.46875 0.0625 C 2.238281 0.0625 2.039062 0.0234375 1.875 -0.046875 C 1.71875 -0.117188 1.585938 -0.234375 1.484375 -0.390625 L 1.40625 -0.375 L 1.40625 1.453125 Z M 2.21875 -0.6875 C 2.476562 -0.6875 2.675781 -0.773438 2.8125 -0.953125 C 2.957031 -1.128906 3.03125 -1.40625 3.03125 -1.78125 C 3.03125 -2.15625 2.957031 -2.429688 2.8125 -2.609375 C 2.675781 -2.785156 2.476562 -2.875 2.21875 -2.875 C 1.96875 -2.875 1.769531 -2.78125 1.625 -2.59375 C 1.476562 -2.414062 1.40625 -2.144531 1.40625 -1.78125 C 1.40625 -1.414062 1.476562 -1.140625 1.625 -0.953125 C 1.769531 -0.773438 1.96875 -0.6875 2.21875 -0.6875 Z M 2.21875 -0.6875 "/></g></g><g transform="translate(107.46694, 170.266903)"><g><path d="M 2.078125 0.0625 C 1.722656 0.0625 1.410156 -0.00390625 1.140625 -0.140625 C 0.878906 -0.285156 0.675781 -0.492188 0.53125 -0.765625 C 0.382812 -1.046875 0.3125 -1.382812 0.3125 -1.78125 C 0.3125 -2.175781 0.382812 -2.507812 0.53125 -2.78125 C 0.675781 -3.0625 0.878906 -3.273438 1.140625 -3.421875 C 1.410156 -3.566406 1.722656 -3.640625 2.078125 -3.640625 C 2.421875 -3.640625 2.722656 -3.566406 2.984375 -3.421875 C 3.253906 -3.273438 3.460938 -3.0625 3.609375 -2.78125 C 3.753906 -2.507812 3.828125 -2.175781 3.828125 -1.78125 C 3.828125 -1.382812 3.753906 -1.046875 3.609375 -0.765625 C 3.460938 -0.492188 3.253906 -0.285156 2.984375 -0.140625 C 2.722656 -0.00390625 2.421875 0.0625 2.078125 0.0625 Z M 2.078125 -0.6875 C 2.628906 -0.6875 2.90625 -1.050781 2.90625 -1.78125 C 2.90625 -2.15625 2.832031 -2.429688 2.6875 -2.609375 C 2.550781 -2.785156 2.347656 -2.875 2.078125 -2.875 C 1.523438 -2.875 1.25 -2.507812 1.25 -1.78125 C 1.25 -1.050781 1.523438 -0.6875 2.078125 -0.6875 Z M 2.078125 -0.6875 "/></g></g><g transform="translate(111.613393, 170.266903)"><g><path d="M 1.921875 0 L 0.984375 0 L 0.125 -3.5625 L 0.953125 -3.5625 L 1.484375 -1.15625 L 1.546875 -1.15625 L 2.234375 -3.5625 L 3.015625 -3.5625 L 3.703125 -1.15625 L 3.78125 -1.15625 L 4.28125 -3.5625 L 5.09375 -3.5625 L 4.25 0 L 3.3125 0 L 2.640625 -2.421875 L 2.5625 -2.421875 Z M 1.921875 0 "/></g></g><g transform="translate(116.83042, 170.266903)"><g><path d="M 3.53125 -1.578125 L 1.234375 -1.578125 C 1.253906 -1.265625 1.335938 -1.035156 1.484375 -0.890625 C 1.640625 -0.753906 1.847656 -0.6875 2.109375 -0.6875 C 2.316406 -0.6875 2.484375 -0.722656 2.609375 -0.796875 C 2.734375 -0.878906 2.835938 -1 2.921875 -1.15625 L 2.984375 -1.15625 L 3.578125 -0.765625 C 3.460938 -0.515625 3.285156 -0.3125 3.046875 -0.15625 C 2.816406 -0.0078125 2.503906 0.0625 2.109375 0.0625 C 1.742188 0.0625 1.425781 -0.00390625 1.15625 -0.140625 C 0.882812 -0.285156 0.675781 -0.492188 0.53125 -0.765625 C 0.382812 -1.046875 0.3125 -1.382812 0.3125 -1.78125 C 0.3125 -2.1875 0.390625 -2.523438 0.546875 -2.796875 C 0.703125 -3.078125 0.910156 -3.285156 1.171875 -3.421875 C 1.429688 -3.566406 1.722656 -3.640625 2.046875 -3.640625 C 2.554688 -3.640625 2.941406 -3.503906 3.203125 -3.234375 C 3.472656 -2.960938 3.609375 -2.570312 3.609375 -2.0625 C 3.609375 -1.875 3.601562 -1.726562 3.59375 -1.625 Z M 2.75 -2.15625 C 2.75 -2.425781 2.6875 -2.625 2.5625 -2.75 C 2.445312 -2.875 2.273438 -2.9375 2.046875 -2.9375 C 1.597656 -2.9375 1.332031 -2.675781 1.25 -2.15625 Z M 2.75 -2.15625 "/></g></g><g transform="translate(120.708421, 170.266903)"><g><path d="M 0.515625 0 L 0.515625 -3.5625 L 1.390625 -3.5625 L 1.390625 -3.03125 L 1.453125 -3.03125 C 1.535156 -3.226562 1.644531 -3.367188 1.78125 -3.453125 C 1.925781 -3.546875 2.097656 -3.59375 2.296875 -3.59375 C 2.503906 -3.59375 2.660156 -3.5625 2.765625 -3.5 L 2.609375 -2.71875 L 2.546875 -2.703125 C 2.484375 -2.734375 2.425781 -2.753906 2.375 -2.765625 C 2.320312 -2.773438 2.257812 -2.78125 2.1875 -2.78125 C 1.9375 -2.78125 1.742188 -2.691406 1.609375 -2.515625 C 1.472656 -2.335938 1.40625 -2.054688 1.40625 -1.671875 L 1.40625 0 Z M 0.515625 0 "/></g></g><g transform="translate(123.506145, 170.266903)"><g><path d="M 2.4375 -4.734375 C 2.78125 -4.734375 3.070312 -4.671875 3.3125 -4.546875 C 3.550781 -4.421875 3.734375 -4.242188 3.859375 -4.015625 C 3.984375 -3.796875 4.046875 -3.539062 4.046875 -3.25 C 4.046875 -2.945312 3.984375 -2.6875 3.859375 -2.46875 C 3.734375 -2.25 3.550781 -2.078125 3.3125 -1.953125 C 3.070312 -1.828125 2.78125 -1.765625 2.4375 -1.765625 L 1.546875 -1.765625 L 1.546875 0 L 0.609375 0 L 0.609375 -4.734375 Z M 2.3125 -2.5 C 2.832031 -2.5 3.09375 -2.75 3.09375 -3.25 C 3.09375 -3.738281 2.832031 -3.984375 2.3125 -3.984375 L 1.546875 -3.984375 L 1.546875 -2.5 Z M 2.3125 -2.5 "/></g></g><g transform="translate(127.827253, 170.266903)"><g><path d="M 1.484375 0.0625 C 1.160156 0.0625 0.910156 -0.0195312 0.734375 -0.1875 C 0.566406 -0.363281 0.484375 -0.628906 0.484375 -0.984375 L 0.484375 -5 L 1.390625 -5 L 1.390625 -1.015625 C 1.390625 -0.796875 1.476562 -0.6875 1.65625 -0.6875 C 1.707031 -0.6875 1.765625 -0.695312 1.828125 -0.71875 L 1.875 -0.703125 L 1.953125 -0.015625 C 1.898438 0.00390625 1.832031 0.0195312 1.75 0.03125 C 1.664062 0.0507812 1.578125 0.0625 1.484375 0.0625 Z M 1.484375 0.0625 "/></g></g><g transform="translate(129.877839, 170.266903)"><g><path d="M 1.390625 0.0625 C 1.160156 0.0625 0.960938 0.0195312 0.796875 -0.0625 C 0.628906 -0.144531 0.5 -0.265625 0.40625 -0.421875 C 0.3125 -0.585938 0.265625 -0.785156 0.265625 -1.015625 C 0.265625 -1.222656 0.3125 -1.398438 0.40625 -1.546875 C 0.5 -1.691406 0.640625 -1.804688 0.828125 -1.890625 C 1.015625 -1.984375 1.265625 -2.054688 1.578125 -2.109375 C 1.785156 -2.148438 1.941406 -2.1875 2.046875 -2.21875 C 2.160156 -2.257812 2.238281 -2.304688 2.28125 -2.359375 C 2.320312 -2.410156 2.34375 -2.476562 2.34375 -2.5625 C 2.34375 -2.675781 2.300781 -2.765625 2.21875 -2.828125 C 2.144531 -2.890625 2.015625 -2.921875 1.828125 -2.921875 C 1.628906 -2.921875 1.4375 -2.875 1.25 -2.78125 C 1.070312 -2.695312 0.921875 -2.582031 0.796875 -2.4375 L 0.734375 -2.4375 L 0.359375 -3 C 0.535156 -3.195312 0.753906 -3.351562 1.015625 -3.46875 C 1.273438 -3.582031 1.5625 -3.640625 1.875 -3.640625 C 2.34375 -3.640625 2.679688 -3.535156 2.890625 -3.328125 C 3.109375 -3.128906 3.21875 -2.847656 3.21875 -2.484375 L 3.21875 -0.9375 C 3.21875 -0.769531 3.285156 -0.6875 3.421875 -0.6875 C 3.472656 -0.6875 3.523438 -0.695312 3.578125 -0.71875 L 3.625 -0.703125 L 3.6875 -0.078125 C 3.632812 -0.046875 3.5625 -0.0195312 3.46875 0 C 3.382812 0.0195312 3.289062 0.03125 3.1875 0.03125 C 2.976562 0.03125 2.8125 -0.0078125 2.6875 -0.09375 C 2.570312 -0.175781 2.488281 -0.304688 2.4375 -0.484375 L 2.375 -0.484375 C 2.195312 -0.117188 1.867188 0.0625 1.390625 0.0625 Z M 1.671875 -0.609375 C 1.878906 -0.609375 2.046875 -0.675781 2.171875 -0.8125 C 2.296875 -0.945312 2.359375 -1.140625 2.359375 -1.390625 L 2.359375 -1.75 L 2.296875 -1.765625 C 2.242188 -1.722656 2.171875 -1.6875 2.078125 -1.65625 C 1.992188 -1.625 1.867188 -1.597656 1.703125 -1.578125 C 1.515625 -1.546875 1.375 -1.488281 1.28125 -1.40625 C 1.195312 -1.320312 1.15625 -1.210938 1.15625 -1.078125 C 1.15625 -0.921875 1.203125 -0.800781 1.296875 -0.71875 C 1.390625 -0.644531 1.515625 -0.609375 1.671875 -0.609375 Z M 1.671875 -0.609375 "/></g></g><g transform="translate(133.639403, 170.266903)"><g><path d="M 0.796875 1.515625 C 0.640625 1.515625 0.5 1.5 0.375 1.46875 C 0.25 1.445312 0.148438 1.421875 0.078125 1.390625 L 0.21875 0.65625 L 0.265625 0.640625 C 0.328125 0.671875 0.394531 0.691406 0.46875 0.703125 C 0.550781 0.722656 0.632812 0.734375 0.71875 0.734375 C 0.863281 0.734375 0.984375 0.710938 1.078125 0.671875 C 1.171875 0.640625 1.25 0.578125 1.3125 0.484375 C 1.382812 0.398438 1.445312 0.28125 1.5 0.125 L 0.078125 -3.5625 L 1.015625 -3.5625 L 1.90625 -1.09375 L 1.984375 -1.09375 L 2.84375 -3.5625 L 3.75 -3.5625 L 2.328125 0.21875 C 2.210938 0.53125 2.082031 0.78125 1.9375 0.96875 C 1.800781 1.15625 1.640625 1.289062 1.453125 1.375 C 1.273438 1.46875 1.054688 1.515625 0.796875 1.515625 Z M 0.796875 1.515625 "/></g></g><g transform="translate(137.468889, 170.266903)"><g/></g><g transform="translate(139.031086, 170.266903)"><g><path d="M 2.09375 0.0625 C 1.769531 0.0625 1.476562 0.0234375 1.21875 -0.046875 C 0.96875 -0.128906 0.753906 -0.234375 0.578125 -0.359375 C 0.410156 -0.492188 0.28125 -0.644531 0.1875 -0.8125 L 0.703125 -1.4375 L 0.78125 -1.4375 C 0.925781 -1.21875 1.109375 -1.046875 1.328125 -0.921875 C 1.546875 -0.796875 1.800781 -0.734375 2.09375 -0.734375 C 2.34375 -0.734375 2.53125 -0.785156 2.65625 -0.890625 C 2.789062 -1.003906 2.859375 -1.15625 2.859375 -1.34375 C 2.859375 -1.445312 2.835938 -1.535156 2.796875 -1.609375 C 2.753906 -1.691406 2.6875 -1.757812 2.59375 -1.8125 C 2.5 -1.863281 2.367188 -1.910156 2.203125 -1.953125 L 1.59375 -2.09375 C 1.164062 -2.1875 0.847656 -2.34375 0.640625 -2.5625 C 0.429688 -2.789062 0.328125 -3.085938 0.328125 -3.453125 C 0.328125 -3.722656 0.394531 -3.957031 0.53125 -4.15625 C 0.664062 -4.351562 0.859375 -4.507812 1.109375 -4.625 C 1.367188 -4.738281 1.675781 -4.796875 2.03125 -4.796875 C 2.394531 -4.796875 2.707031 -4.75 2.96875 -4.65625 C 3.226562 -4.5625 3.445312 -4.414062 3.625 -4.21875 L 3.171875 -3.578125 L 3.09375 -3.578125 C 2.957031 -3.710938 2.800781 -3.816406 2.625 -3.890625 C 2.457031 -3.960938 2.257812 -4 2.03125 -4 C 1.78125 -4 1.585938 -3.953125 1.453125 -3.859375 C 1.316406 -3.773438 1.25 -3.648438 1.25 -3.484375 C 1.25 -3.335938 1.296875 -3.21875 1.390625 -3.125 C 1.484375 -3.039062 1.644531 -2.972656 1.875 -2.921875 L 2.5 -2.796875 C 2.957031 -2.703125 3.289062 -2.535156 3.5 -2.296875 C 3.707031 -2.066406 3.8125 -1.765625 3.8125 -1.390625 C 3.8125 -1.097656 3.742188 -0.84375 3.609375 -0.625 C 3.484375 -0.40625 3.289062 -0.234375 3.03125 -0.109375 C 2.78125 0.00390625 2.46875 0.0625 2.09375 0.0625 Z M 2.09375 0.0625 "/></g></g><g transform="translate(143.093445, 170.266903)"><g><path d="M 2.46875 -0.84375 L 2.6875 -0.1875 C 2.59375 -0.101562 2.472656 -0.0390625 2.328125 0 C 2.179688 0.0390625 2.015625 0.0625 1.828125 0.0625 C 1.441406 0.0625 1.148438 -0.0390625 0.953125 -0.25 C 0.753906 -0.457031 0.65625 -0.765625 0.65625 -1.171875 L 0.65625 -2.859375 L 0.109375 -2.859375 L 0.109375 -3.578125 L 0.65625 -3.578125 L 0.65625 -4.265625 L 1.546875 -4.40625 L 1.546875 -3.578125 L 2.5625 -3.578125 L 2.5625 -2.859375 L 1.546875 -2.859375 L 1.546875 -1.234375 C 1.546875 -1.054688 1.582031 -0.925781 1.65625 -0.84375 C 1.726562 -0.757812 1.832031 -0.71875 1.96875 -0.71875 C 2.132812 -0.71875 2.273438 -0.757812 2.390625 -0.84375 Z M 2.46875 -0.84375 "/></g></g><g transform="translate(145.865294, 170.266903)"><g><path d="M 1.640625 0.0625 C 1.234375 0.0625 0.929688 -0.046875 0.734375 -0.265625 C 0.546875 -0.484375 0.453125 -0.796875 0.453125 -1.203125 L 0.453125 -3.5625 L 1.359375 -3.5625 L 1.359375 -1.3125 C 1.359375 -1.09375 1.40625 -0.929688 1.5 -0.828125 C 1.59375 -0.734375 1.738281 -0.6875 1.9375 -0.6875 C 2.175781 -0.6875 2.363281 -0.765625 2.5 -0.921875 C 2.644531 -1.085938 2.71875 -1.347656 2.71875 -1.703125 L 2.71875 -3.5625 L 3.609375 -3.5625 L 3.609375 0 L 2.75 0 L 2.75 -0.53125 L 2.6875 -0.546875 C 2.570312 -0.335938 2.429688 -0.179688 2.265625 -0.078125 C 2.097656 0.015625 1.890625 0.0625 1.640625 0.0625 Z M 1.640625 0.0625 "/></g></g><g transform="translate(149.992341, 170.266903)"><g><path d="M 1.765625 0.0625 C 1.484375 0.0625 1.234375 -0.00390625 1.015625 -0.140625 C 0.796875 -0.273438 0.625 -0.476562 0.5 -0.75 C 0.375 -1.03125 0.3125 -1.375 0.3125 -1.78125 C 0.3125 -2.1875 0.375 -2.523438 0.5 -2.796875 C 0.632812 -3.078125 0.8125 -3.285156 1.03125 -3.421875 C 1.257812 -3.566406 1.519531 -3.640625 1.8125 -3.640625 C 2.03125 -3.640625 2.21875 -3.597656 2.375 -3.515625 C 2.539062 -3.441406 2.679688 -3.320312 2.796875 -3.15625 L 2.859375 -3.1875 L 2.859375 -5 L 3.765625 -5 L 3.765625 0 L 2.859375 0 L 2.859375 -0.46875 L 2.796875 -0.46875 C 2.703125 -0.300781 2.566406 -0.171875 2.390625 -0.078125 C 2.210938 0.015625 2.003906 0.0625 1.765625 0.0625 Z M 2.046875 -0.6875 C 2.304688 -0.6875 2.507812 -0.773438 2.65625 -0.953125 C 2.800781 -1.140625 2.875 -1.414062 2.875 -1.78125 C 2.875 -2.144531 2.800781 -2.414062 2.65625 -2.59375 C 2.507812 -2.78125 2.304688 -2.875 2.046875 -2.875 C 1.785156 -2.875 1.585938 -2.785156 1.453125 -2.609375 C 1.316406 -2.429688 1.25 -2.15625 1.25 -1.78125 C 1.25 -1.40625 1.316406 -1.128906 1.453125 -0.953125 C 1.585938 -0.773438 1.785156 -0.6875 2.046875 -0.6875 Z M 2.046875 -0.6875 "/></g></g><g transform="translate(154.268169, 170.266903)"><g><path d="M 0.953125 -4 C 0.796875 -4 0.664062 -4.046875 0.5625 -4.140625 C 0.46875 -4.242188 0.421875 -4.367188 0.421875 -4.515625 C 0.421875 -4.671875 0.46875 -4.796875 0.5625 -4.890625 C 0.664062 -4.992188 0.796875 -5.046875 0.953125 -5.046875 C 1.066406 -5.046875 1.164062 -5.019531 1.25 -4.96875 C 1.332031 -4.925781 1.394531 -4.863281 1.4375 -4.78125 C 1.488281 -4.707031 1.515625 -4.617188 1.515625 -4.515625 C 1.515625 -4.421875 1.488281 -4.332031 1.4375 -4.25 C 1.394531 -4.164062 1.332031 -4.101562 1.25 -4.0625 C 1.164062 -4.019531 1.066406 -4 0.953125 -4 Z M 0.515625 0 L 0.515625 -3.5625 L 1.40625 -3.5625 L 1.40625 0 Z M 0.515625 0 "/></g></g><g transform="translate(156.18938, 170.266903)"><g><path d="M 2.078125 0.0625 C 1.722656 0.0625 1.410156 -0.00390625 1.140625 -0.140625 C 0.878906 -0.285156 0.675781 -0.492188 0.53125 -0.765625 C 0.382812 -1.046875 0.3125 -1.382812 0.3125 -1.78125 C 0.3125 -2.175781 0.382812 -2.507812 0.53125 -2.78125 C 0.675781 -3.0625 0.878906 -3.273438 1.140625 -3.421875 C 1.410156 -3.566406 1.722656 -3.640625 2.078125 -3.640625 C 2.421875 -3.640625 2.722656 -3.566406 2.984375 -3.421875 C 3.253906 -3.273438 3.460938 -3.0625 3.609375 -2.78125 C 3.753906 -2.507812 3.828125 -2.175781 3.828125 -1.78125 C 3.828125 -1.382812 3.753906 -1.046875 3.609375 -0.765625 C 3.460938 -0.492188 3.253906 -0.285156 2.984375 -0.140625 C 2.722656 -0.00390625 2.421875 0.0625 2.078125 0.0625 Z M 2.078125 -0.6875 C 2.628906 -0.6875 2.90625 -1.050781 2.90625 -1.78125 C 2.90625 -2.15625 2.832031 -2.429688 2.6875 -2.609375 C 2.550781 -2.785156 2.347656 -2.875 2.078125 -2.875 C 1.523438 -2.875 1.25 -2.507812 1.25 -1.78125 C 1.25 -1.050781 1.523438 -0.6875 2.078125 -0.6875 Z M 2.078125 -0.6875 "/></g></g><g transform="translate(160.335833, 170.266903)"><g><path d="M 1.671875 0.0625 C 1.421875 0.0625 1.195312 0.0351562 1 -0.015625 C 0.800781 -0.078125 0.628906 -0.15625 0.484375 -0.25 C 0.335938 -0.351562 0.226562 -0.46875 0.15625 -0.59375 L 0.65625 -1.140625 L 0.734375 -1.140625 C 0.847656 -0.972656 0.984375 -0.847656 1.140625 -0.765625 C 1.304688 -0.691406 1.484375 -0.65625 1.671875 -0.65625 C 1.847656 -0.65625 1.976562 -0.6875 2.0625 -0.75 C 2.15625 -0.8125 2.203125 -0.898438 2.203125 -1.015625 C 2.203125 -1.109375 2.171875 -1.1875 2.109375 -1.25 C 2.046875 -1.3125 1.941406 -1.359375 1.796875 -1.390625 L 1.328125 -1.5 C 0.972656 -1.582031 0.710938 -1.710938 0.546875 -1.890625 C 0.390625 -2.066406 0.3125 -2.285156 0.3125 -2.546875 C 0.3125 -2.773438 0.363281 -2.96875 0.46875 -3.125 C 0.582031 -3.289062 0.742188 -3.414062 0.953125 -3.5 C 1.160156 -3.59375 1.398438 -3.640625 1.671875 -3.640625 C 1.992188 -3.640625 2.257812 -3.59375 2.46875 -3.5 C 2.6875 -3.40625 2.851562 -3.28125 2.96875 -3.125 L 2.484375 -2.609375 L 2.421875 -2.609375 C 2.328125 -2.722656 2.21875 -2.804688 2.09375 -2.859375 C 1.96875 -2.910156 1.828125 -2.9375 1.671875 -2.9375 C 1.316406 -2.9375 1.140625 -2.820312 1.140625 -2.59375 C 1.140625 -2.507812 1.171875 -2.4375 1.234375 -2.375 C 1.304688 -2.3125 1.425781 -2.265625 1.59375 -2.234375 L 2.03125 -2.140625 C 2.394531 -2.054688 2.660156 -1.925781 2.828125 -1.75 C 2.992188 -1.582031 3.078125 -1.359375 3.078125 -1.078125 C 3.078125 -0.847656 3.019531 -0.644531 2.90625 -0.46875 C 2.789062 -0.300781 2.628906 -0.171875 2.421875 -0.078125 C 2.210938 0.015625 1.960938 0.0625 1.671875 0.0625 Z M 1.671875 0.0625 "/></g></g><g transform="translate(163.62518, 170.266903)"><g/></g><g transform="translate(165.187377, 170.266903)"><g><path d="M 1.546875 0 L 0.609375 0 L 0.609375 -4.734375 L 1.546875 -4.734375 Z M 1.546875 0 "/></g></g><g transform="translate(167.3544, 170.266903)"><g><path d="M 0.515625 0 L 0.515625 -3.5625 L 1.375 -3.5625 L 1.375 -3.046875 L 1.4375 -3.03125 C 1.664062 -3.4375 2.023438 -3.640625 2.515625 -3.640625 C 2.929688 -3.640625 3.234375 -3.523438 3.421875 -3.296875 C 3.617188 -3.078125 3.71875 -2.75 3.71875 -2.3125 L 3.71875 0 L 2.828125 0 L 2.828125 -2.203125 C 2.828125 -2.441406 2.78125 -2.613281 2.6875 -2.71875 C 2.59375 -2.820312 2.4375 -2.875 2.21875 -2.875 C 1.96875 -2.875 1.769531 -2.789062 1.625 -2.625 C 1.476562 -2.457031 1.40625 -2.195312 1.40625 -1.84375 L 1.40625 0 Z M 0.515625 0 "/></g></g><g transform="translate(171.533197, 170.266903)"><g><path d="M 2.078125 0.0625 C 1.734375 0.0625 1.425781 -0.00390625 1.15625 -0.140625 C 0.894531 -0.285156 0.6875 -0.5 0.53125 -0.78125 C 0.382812 -1.0625 0.3125 -1.394531 0.3125 -1.78125 C 0.3125 -2.175781 0.382812 -2.507812 0.53125 -2.78125 C 0.6875 -3.0625 0.894531 -3.273438 1.15625 -3.421875 C 1.425781 -3.566406 1.726562 -3.640625 2.0625 -3.640625 C 2.8125 -3.640625 3.296875 -3.363281 3.515625 -2.8125 L 2.890625 -2.375 L 2.828125 -2.375 C 2.753906 -2.539062 2.65625 -2.664062 2.53125 -2.75 C 2.414062 -2.832031 2.257812 -2.875 2.0625 -2.875 C 1.800781 -2.875 1.597656 -2.785156 1.453125 -2.609375 C 1.316406 -2.429688 1.25 -2.15625 1.25 -1.78125 C 1.25 -1.414062 1.320312 -1.140625 1.46875 -0.953125 C 1.613281 -0.773438 1.816406 -0.6875 2.078125 -0.6875 C 2.273438 -0.6875 2.441406 -0.738281 2.578125 -0.84375 C 2.710938 -0.945312 2.804688 -1.097656 2.859375 -1.296875 L 2.9375 -1.3125 L 3.5625 -0.953125 C 3.476562 -0.648438 3.3125 -0.40625 3.0625 -0.21875 C 2.820312 -0.03125 2.492188 0.0625 2.078125 0.0625 Z M 2.078125 0.0625 "/></g></g><g transform="translate(175.210667, 170.266903)"><g><path d="M 0.90625 0.03125 C 0.789062 0.03125 0.691406 0.0078125 0.609375 -0.03125 C 0.523438 -0.0820312 0.457031 -0.148438 0.40625 -0.234375 C 0.363281 -0.316406 0.34375 -0.410156 0.34375 -0.515625 C 0.34375 -0.617188 0.363281 -0.707031 0.40625 -0.78125 C 0.457031 -0.863281 0.523438 -0.925781 0.609375 -0.96875 C 0.691406 -1.019531 0.789062 -1.046875 0.90625 -1.046875 C 1.03125 -1.046875 1.132812 -1.023438 1.21875 -0.984375 C 1.300781 -0.941406 1.363281 -0.878906 1.40625 -0.796875 C 1.457031 -0.710938 1.484375 -0.617188 1.484375 -0.515625 C 1.484375 -0.359375 1.429688 -0.226562 1.328125 -0.125 C 1.222656 -0.0195312 1.082031 0.03125 0.90625 0.03125 Z M 0.90625 0.03125 "/></g></g></g><g fill="#ffffff" fill-opacity="1"><g transform="translate(91.48325, 106.89247)"><g><path d="M 4.21875 -1.0625 L 4.21875 -8.4375 L 2.109375 -8.4375 L 2.109375 -1.0625 Z M 0 0 L 0 -9.5 L 5.28125 -9.5 L 5.28125 -8.4375 L 6.328125 -8.4375 L 6.328125 -1.0625 L 5.28125 -1.0625 L 5.28125 0 Z M 0 0 "/></g></g></g><g fill="#ffffff" fill-opacity="1"><g transform="translate(99.708852, 106.89247)"><g><path d="M 0 0 L 0 -9.5 L 6.328125 -9.5 L 6.328125 -8.4375 L 2.109375 -8.4375 L 2.109375 -5.28125 L 5.28125 -5.28125 L 5.28125 -4.21875 L 2.109375 -4.21875 L 2.109375 -1.0625 L 6.328125 -1.0625 L 6.328125 0 Z M 0 0 "/></g></g></g><g fill="#ffffff" fill-opacity="1"><g transform="translate(107.934454, 106.89247)"><g><path d="M 1.0625 0 L 1.0625 -1.0625 L 0 -1.0625 L 0 -2.109375 L 2.109375 -2.109375 L 2.109375 -1.0625 L 4.21875 -1.0625 L 4.21875 -4.21875 L 1.0625 -4.21875 L 1.0625 -5.28125 L 0 -5.28125 L 0 -8.4375 L 1.0625 -8.4375 L 1.0625 -9.5 L 5.28125 -9.5 L 5.28125 -8.4375 L 6.328125 -8.4375 L 6.328125 -7.390625 L 4.21875 -7.390625 L 4.21875 -8.4375 L 2.109375 -8.4375 L 2.109375 -5.28125 L 5.28125 -5.28125 L 5.28125 -4.21875 L 6.328125 -4.21875 L 6.328125 -1.0625 L 5.28125 -1.0625 L 5.28125 0 Z M 1.0625 0 "/></g></g></g><g fill="#ffffff" fill-opacity="1"><g transform="translate(116.160056, 106.89247)"><g><path d="M 0 0 L 0 -1.0625 L 1.0625 -1.0625 L 1.0625 -8.4375 L 0 -8.4375 L 0 -9.5 L 4.21875 -9.5 L 4.21875 -8.4375 L 3.171875 -8.4375 L 3.171875 -1.0625 L 4.21875 -1.0625 L 4.21875 0 Z M 0 0 "/></g></g></g><g fill="#ffffff" fill-opacity="1"><g transform="translate(122.27653, 106.89247)"><g><path d="M 1.0625 0 L 1.0625 -1.0625 L 0 -1.0625 L 0 -8.4375 L 1.0625 -8.4375 L 1.0625 -9.5 L 5.28125 -9.5 L 5.28125 -8.4375 L 6.328125 -8.4375 L 6.328125 -7.390625 L 4.21875 -7.390625 L 4.21875 -8.4375 L 2.109375 -8.4375 L 2.109375 -1.0625 L 4.21875 -1.0625 L 4.21875 -4.21875 L 3.171875 -4.21875 L 3.171875 -5.28125 L 6.328125 -5.28125 L 6.328125 0 Z M 1.0625 0 "/></g></g></g><g fill="#ffffff" fill-opacity="1"><g transform="translate(130.502132, 106.89247)"><g><path d="M 0 0 L 0 -9.5 L 2.109375 -9.5 L 2.109375 -8.4375 L 3.171875 -8.4375 L 3.171875 -5.28125 L 2.109375 -5.28125 L 2.109375 0 Z M 4.21875 0 L 4.21875 -2.109375 L 3.171875 -2.109375 L 3.171875 -5.28125 L 4.21875 -5.28125 L 4.21875 -9.5 L 6.328125 -9.5 L 6.328125 0 Z M 4.21875 0 "/></g></g></g><g fill="#ffffff" fill-opacity="1"><g transform="translate(138.727734, 106.89247)"><g><path d="M 0 0 L 0 -9.5 L 6.328125 -9.5 L 6.328125 -8.4375 L 2.109375 -8.4375 L 2.109375 -5.28125 L 5.28125 -5.28125 L 5.28125 -4.21875 L 2.109375 -4.21875 L 2.109375 -1.0625 L 6.328125 -1.0625 L 6.328125 0 Z M 0 0 "/></g></g></g><g fill="#ffffff" fill-opacity="1"><g transform="translate(146.953337, 106.89247)"><g><path d="M 4.21875 -1.0625 L 4.21875 -8.4375 L 2.109375 -8.4375 L 2.109375 -1.0625 Z M 0 0 L 0 -9.5 L 5.28125 -9.5 L 5.28125 -8.4375 L 6.328125 -8.4375 L 6.328125 -1.0625 L 5.28125 -1.0625 L 5.28125 0 Z M 0 0 "/></g></g></g><g fill="#ffffff" fill-opacity="1"><g transform="translate(155.178939, 106.89247)"><g/></g></g><g fill="#ffffff" fill-opacity="1"><g transform="translate(159.186284, 106.89247)"><g><path d="M 4.21875 -1.0625 L 4.21875 -5.28125 L 2.109375 -5.28125 L 2.109375 -1.0625 Z M 4.21875 -6.328125 L 4.21875 -8.4375 L 2.109375 -8.4375 L 2.109375 -6.328125 Z M 0 0 L 0 -9.5 L 5.28125 -9.5 L 5.28125 -8.4375 L 6.328125 -8.4375 L 6.328125 -6.328125 L 5.28125 -6.328125 L 5.28125 -5.28125 L 6.328125 -5.28125 L 6.328125 -1.0625 L 5.28125 -1.0625 L 5.28125 0 Z M 0 0 "/></g></g></g><g fill="#ffffff" fill-opacity="1"><g transform="translate(167.411886, 106.89247)"><g><path d="M 2.109375 0 L 2.109375 -5.28125 L 1.0625 -5.28125 L 1.0625 -6.328125 L 0 -6.328125 L 0 -9.5 L 2.109375 -9.5 L 2.109375 -6.328125 L 4.21875 -6.328125 L 4.21875 -9.5 L 6.328125 -9.5 L 6.328125 -6.328125 L 5.28125 -6.328125 L 5.28125 -5.28125 L 4.21875 -5.28125 L 4.21875 0 Z M 2.109375 0 "/></g></g></g><g fill="#f2c12e" fill-opacity="1"><g transform="translate(70.935551, 75.4075)"><g><path d="M 1.484375 -0.40625 C 1.484375 -0.140625 1.625 0 1.875 0 L 6.765625 0 C 7.03125 0 7.171875 -0.140625 7.171875 -0.40625 L 7.171875 -11.75 C 7.171875 -12 7.3125 -12.15625 7.578125 -12.15625 L 8.0625 -12.15625 C 8.3125 -12.15625 8.453125 -12 8.453125 -11.75 L 8.453125 -11.28125 C 8.453125 -11.03125 8.609375 -10.890625 8.859375 -10.890625 L 9.328125 -10.890625 C 9.578125 -10.890625 9.71875 -10.734375 9.71875 -10.484375 L 9.71875 -0.40625 C 9.71875 -0.140625 9.875 0 10.125 0 L 15.015625 0 C 15.265625 0 15.421875 -0.140625 15.421875 -0.40625 L 15.421875 -19.34375 C 15.421875 -19.59375 15.265625 -19.75 15.015625 -19.75 L 10.125 -19.75 C 9.875 -19.75 9.71875 -19.59375 9.71875 -19.34375 L 9.71875 -13.8125 C 9.71875 -13.578125 9.890625 -13.421875 10.125 -13.421875 L 10.59375 -13.421875 C 10.828125 -13.421875 10.984375 -13.25 10.984375 -13.015625 L 10.984375 -12.546875 C 10.984375 -12.3125 11.15625 -12.15625 11.390625 -12.15625 L 11.859375 -12.15625 C 12.09375 -12.15625 12.25 -11.984375 12.25 -11.75 L 12.25 -11.28125 C 12.25 -11.046875 12.09375 -10.890625 11.859375 -10.890625 L 11.390625 -10.890625 C 11.15625 -10.890625 10.984375 -11.046875 10.984375 -11.28125 L 10.984375 -11.75 C 10.984375 -11.984375 10.828125 -12.15625 10.59375 -12.15625 L 10.125 -12.15625 C 9.890625 -12.15625 9.71875 -12.3125 9.71875 -12.546875 L 9.71875 -13.015625 C 9.71875 -13.265625 9.578125 -13.421875 9.328125 -13.421875 L 8.859375 -13.421875 C 8.609375 -13.421875 8.453125 -13.5625 8.453125 -13.8125 L 8.453125 -14.28125 C 8.453125 -14.53125 8.3125 -14.6875 8.0625 -14.6875 L 7.59375 -14.6875 C 7.34375 -14.6875 7.1875 -14.828125 7.1875 -15.078125 L 7.1875 -15.546875 C 7.1875 -15.796875 7.046875 -15.953125 6.796875 -15.953125 L 6.328125 -15.953125 C 6.09375 -15.953125 5.921875 -16.109375 5.921875 -16.34375 L 5.921875 -16.8125 C 5.921875 -17.046875 5.765625 -17.21875 5.53125 -17.21875 L 5.0625 -17.21875 C 4.828125 -17.21875 4.65625 -17.375 4.65625 -17.609375 L 4.65625 -18.078125 C 4.65625 -18.3125 4.5 -18.484375 4.265625 -18.484375 L 3.796875 -18.484375 C 3.5625 -18.484375 3.390625 -18.640625 3.390625 -18.875 L 3.390625 -19.34375 C 3.390625 -19.578125 3.234375 -19.75 3 -19.75 L 1.875 -19.75 C 1.625 -19.75 1.484375 -19.59375 1.484375 -19.34375 Z M 1.484375 -0.40625 "/></g></g></g><g fill="#f2c12e" fill-opacity="1"><g transform="translate(87.827038, 75.4075)"><g><path d="M 1.484375 -0.40625 C 1.484375 -0.171875 1.640625 0 1.875 0 L 6.765625 0 C 7 0 7.171875 -0.171875 7.171875 -0.40625 L 7.171875 -19.34375 C 7.171875 -19.578125 7 -19.75 6.765625 -19.75 L 1.875 -19.75 C 1.640625 -19.75 1.484375 -19.578125 1.484375 -19.34375 Z M 1.484375 -0.40625 "/></g></g></g><g fill="#f2c12e" fill-opacity="1"><g transform="translate(96.473118, 75.4075)"><g><path d="M 1.484375 -0.40625 C 1.484375 -0.140625 1.625 0 1.875 0 L 6.765625 0 C 7.03125 0 7.171875 -0.140625 7.171875 -0.40625 L 7.171875 -11.75 C 7.171875 -12 7.3125 -12.15625 7.578125 -12.15625 L 8.0625 -12.15625 C 8.3125 -12.15625 8.453125 -12 8.453125 -11.75 L 8.453125 -11.28125 C 8.453125 -11.03125 8.609375 -10.890625 8.859375 -10.890625 L 9.328125 -10.890625 C 9.578125 -10.890625 9.71875 -10.734375 9.71875 -10.484375 L 9.71875 -0.40625 C 9.71875 -0.140625 9.875 0 10.125 0 L 15.015625 0 C 15.265625 0 15.421875 -0.140625 15.421875 -0.40625 L 15.421875 -19.34375 C 15.421875 -19.59375 15.265625 -19.75 15.015625 -19.75 L 10.125 -19.75 C 9.875 -19.75 9.71875 -19.59375 9.71875 -19.34375 L 9.71875 -13.8125 C 9.71875 -13.578125 9.890625 -13.421875 10.125 -13.421875 L 10.59375 -13.421875 C 10.828125 -13.421875 10.984375 -13.25 10.984375 -13.015625 L 10.984375 -12.546875 C 10.984375 -12.3125 11.15625 -12.15625 11.390625 -12.15625 L 11.859375 -12.15625 C 12.09375 -12.15625 12.25 -11.984375 12.25 -11.75 L 12.25 -11.28125 C 12.25 -11.046875 12.09375 -10.890625 11.859375 -10.890625 L 11.390625 -10.890625 C 11.15625 -10.890625 10.984375 -11.046875 10.984375 -11.28125 L 10.984375 -11.75 C 10.984375 -11.984375 10.828125 -12.15625 10.59375 -12.15625 L 10.125 -12.15625 C 9.890625 -12.15625 9.71875 -12.3125 9.71875 -12.546875 L 9.71875 -13.015625 C 9.71875 -13.265625 9.578125 -13.421875 9.328125 -13.421875 L 8.859375 -13.421875 C 8.609375 -13.421875 8.453125 -13.5625 8.453125 -13.8125 L 8.453125 -14.28125 C 8.453125 -14.53125 8.3125 -14.6875 8.0625 -14.6875 L 7.59375 -14.6875 C 7.34375 -14.6875 7.1875 -14.828125 7.1875 -15.078125 L 7.1875 -15.546875 C 7.1875 -15.796875 7.046875 -15.953125 6.796875 -15.953125 L 6.328125 -15.953125 C 6.09375 -15.953125 5.921875 -16.109375 5.921875 -16.34375 L 5.921875 -16.8125 C 5.921875 -17.046875 5.765625 -17.21875 5.53125 -17.21875 L 5.0625 -17.21875 C 4.828125 -17.21875 4.65625 -17.375 4.65625 -17.609375 L 4.65625 -18.078125 C 4.65625 -18.3125 4.5 -18.484375 4.265625 -18.484375 L 3.796875 -18.484375 C 3.5625 -18.484375 3.390625 -18.640625 3.390625 -18.875 L 3.390625 -19.34375 C 3.390625 -19.578125 3.234375 -19.75 3 -19.75 L 1.875 -19.75 C 1.625 -19.75 1.484375 -19.59375 1.484375 -19.34375 Z M 1.484375 -0.40625 "/></g></g></g><g fill="#f2c12e" fill-opacity="1"><g transform="translate(113.364605, 75.4075)"><g><path d="M 1.90625 -0.40625 C 1.90625 -0.171875 2.0625 0 2.296875 0 L 11.625 0 C 11.859375 0 12.03125 -0.171875 12.03125 -0.40625 L 12.03125 -0.859375 C 12.03125 -1.09375 12.1875 -1.265625 12.421875 -1.265625 L 12.890625 -1.265625 C 13.125 -1.265625 13.296875 -1.4375 13.296875 -1.671875 L 13.296875 -19.34375 C 13.296875 -19.578125 13.125 -19.75 12.890625 -19.75 L 8 -19.75 C 7.734375 -19.75 7.59375 -19.59375 7.59375 -19.34375 L 7.59375 -1.671875 C 7.59375 -1.40625 7.453125 -1.265625 7.1875 -1.265625 L 6.734375 -1.265625 C 6.46875 -1.265625 6.328125 -1.40625 6.328125 -1.671875 L 6.328125 -2.125 C 6.328125 -2.390625 6.1875 -2.53125 5.921875 -2.53125 L 5.4375 -2.53125 C 5.1875 -2.53125 5.046875 -2.671875 5.046875 -2.9375 L 5.046875 -5.296875 C 5.046875 -5.546875 4.890625 -5.703125 4.640625 -5.703125 L 1.03125 -5.703125 C 0.796875 -5.703125 0.640625 -5.53125 0.640625 -5.296875 L 0.640625 -1.671875 C 0.640625 -1.4375 0.796875 -1.265625 1.03125 -1.265625 L 1.5 -1.265625 C 1.734375 -1.265625 1.90625 -1.09375 1.90625 -0.859375 Z M 1.90625 -0.40625 "/></g></g></g><g fill="#f2c12e" fill-opacity="1"><g transform="translate(128.126206, 75.4075)"><g><path d="M 1.484375 -0.40625 C 1.484375 -0.171875 1.640625 0 1.875 0 L 6.765625 0 C 7 0 7.171875 -0.171875 7.171875 -0.40625 L 7.171875 -5.84375 C 7.171875 -6.078125 7.34375 -6.25 7.578125 -6.25 L 8.03125 -6.25 C 8.265625 -6.25 8.4375 -6.40625 8.4375 -6.640625 L 8.4375 -7.109375 C 8.4375 -7.34375 8.609375 -7.515625 8.84375 -7.515625 L 9.296875 -7.515625 C 9.53125 -7.515625 9.703125 -7.34375 9.703125 -7.109375 L 9.703125 -0.40625 C 9.703125 -0.171875 9.875 0 10.109375 0 L 15 0 C 15.234375 0 15.40625 -0.171875 15.40625 -0.40625 L 15.40625 -18.078125 C 15.40625 -18.3125 15.234375 -18.484375 15 -18.484375 L 14.53125 -18.484375 C 14.296875 -18.484375 14.140625 -18.640625 14.140625 -18.875 L 14.140625 -19.34375 C 14.140625 -19.578125 13.96875 -19.75 13.734375 -19.75 L 6.921875 -19.75 C 6.6875 -19.75 6.515625 -19.578125 6.515625 -19.34375 L 6.515625 -18.875 C 6.515625 -18.640625 6.34375 -18.484375 6.125 -18.484375 L 5.90625 -18.484375 C 5.671875 -18.484375 5.5 -18.3125 5.5 -18.078125 L 5.5 -17.609375 C 5.5 -17.375 5.34375 -17.21875 5.109375 -17.21875 L 4.640625 -17.21875 C 4.40625 -17.21875 4.234375 -17.046875 4.234375 -16.8125 L 4.234375 -16.34375 C 4.234375 -16.109375 4.078125 -15.953125 3.84375 -15.953125 L 3.375 -15.953125 C 3.140625 -15.953125 2.96875 -15.78125 2.96875 -15.546875 L 2.96875 -15.078125 C 2.96875 -14.84375 2.8125 -14.6875 2.578125 -14.6875 L 1.875 -14.6875 C 1.640625 -14.6875 1.484375 -14.515625 1.484375 -14.28125 Z M 7.578125 -8.65625 C 7.34375 -8.65625 7.171875 -8.8125 7.171875 -9.046875 L 7.171875 -16.8125 C 7.171875 -17.046875 7.34375 -17.21875 7.578125 -17.21875 L 8.03125 -17.21875 C 8.265625 -17.21875 8.4375 -17.375 8.4375 -17.609375 L 8.4375 -18.078125 C 8.4375 -18.3125 8.609375 -18.484375 8.84375 -18.484375 L 9.296875 -18.484375 C 9.53125 -18.484375 9.703125 -18.3125 9.703125 -18.078125 L 9.703125 -10.3125 C 9.703125 -10.078125 9.53125 -9.921875 9.296875 -9.921875 L 8.84375 -9.921875 C 8.609375 -9.921875 8.4375 -9.75 8.4375 -9.515625 L 8.4375 -9.046875 C 8.4375 -8.8125 8.265625 -8.65625 8.03125 -8.65625 Z M 7.578125 -8.65625 "/></g></g></g><g fill="#f2c12e" fill-opacity="1"><g transform="translate(144.99661, 75.4075)"><g/></g></g><g fill="#f2c12e" fill-opacity="1"><g transform="translate(150.268608, 75.4075)"><g><path d="M 4.015625 -0.40625 C 4.015625 -0.171875 4.171875 0 4.40625 0 L 13.71875 0 C 13.96875 0 14.140625 -0.171875 14.140625 -0.421875 L 14.140625 -0.84375 C 14.140625 -1.09375 14.296875 -1.265625 14.5625 -1.265625 L 14.984375 -1.265625 C 15.234375 -1.265625 15.40625 -1.4375 15.40625 -1.6875 L 15.40625 -5.28125 C 15.40625 -5.53125 15.234375 -5.703125 14.984375 -5.703125 L 10.125 -5.703125 C 9.875 -5.703125 9.703125 -5.53125 9.703125 -5.28125 L 9.703125 -1.671875 C 9.703125 -1.4375 9.53125 -1.265625 9.296875 -1.265625 L 8.84375 -1.265625 C 8.609375 -1.265625 8.4375 -1.4375 8.4375 -1.671875 L 8.4375 -2.125 C 8.4375 -2.359375 8.265625 -2.53125 8.03125 -2.53125 L 7.578125 -2.53125 C 7.34375 -2.53125 7.171875 -2.703125 7.171875 -2.9375 L 7.171875 -16.8125 C 7.171875 -17.046875 7.34375 -17.21875 7.578125 -17.21875 L 8.03125 -17.21875 C 8.265625 -17.21875 8.4375 -17.375 8.4375 -17.609375 L 8.4375 -18.078125 C 8.4375 -18.3125 8.609375 -18.484375 8.84375 -18.484375 L 9.296875 -18.484375 C 9.53125 -18.484375 9.703125 -18.3125 9.703125 -18.078125 L 9.703125 -15.734375 C 9.703125 -15.484375 9.875 -15.3125 10.125 -15.3125 L 10.5625 -15.3125 C 10.796875 -15.3125 10.96875 -15.140625 10.96875 -14.90625 L 10.96875 -14.46875 C 10.96875 -14.21875 11.140625 -14.046875 11.390625 -14.046875 L 14.984375 -14.046875 C 15.234375 -14.046875 15.40625 -14.21875 15.40625 -14.46875 L 15.40625 -18.0625 C 15.40625 -18.3125 15.234375 -18.484375 14.984375 -18.484375 L 14.234375 -18.484375 C 13.984375 -18.484375 13.8125 -18.640625 13.8125 -18.90625 L 13.8125 -19.328125 C 13.8125 -19.578125 13.640625 -19.75 13.390625 -19.75 L 4.40625 -19.75 C 4.171875 -19.75 4.015625 -19.578125 4.015625 -19.34375 L 4.015625 -18.875 C 4.015625 -18.640625 3.84375 -18.484375 3.609375 -18.484375 L 3.140625 -18.484375 C 2.90625 -18.484375 2.75 -18.3125 2.75 -18.078125 L 2.75 -17.609375 C 2.75 -17.375 2.578125 -17.21875 2.34375 -17.21875 L 1.875 -17.21875 C 1.640625 -17.21875 1.484375 -17.046875 1.484375 -16.8125 L 1.484375 -2.9375 C 1.484375 -2.703125 1.640625 -2.53125 1.875 -2.53125 L 2.34375 -2.53125 C 2.578125 -2.53125 2.75 -2.359375 2.75 -2.125 L 2.75 -1.671875 C 2.75 -1.4375 2.90625 -1.265625 3.140625 -1.265625 L 3.609375 -1.265625 C 3.84375 -1.265625 4.015625 -1.09375 4.015625 -0.859375 Z M 4.015625 -0.40625 "/></g></g></g><g fill="#f2c12e" fill-opacity="1"><g transform="translate(166.928125, 75.4075)"><g><path d="M 1.484375 -0.40625 C 1.484375 -0.171875 1.640625 0 1.875 0 L 6.765625 0 C 7 0 7.171875 -0.171875 7.171875 -0.40625 L 7.171875 -5.84375 C 7.171875 -6.078125 7.34375 -6.25 7.578125 -6.25 L 8.03125 -6.25 C 8.265625 -6.25 8.4375 -6.40625 8.4375 -6.640625 L 8.4375 -7.109375 C 8.4375 -7.34375 8.609375 -7.515625 8.84375 -7.515625 L 9.296875 -7.515625 C 9.53125 -7.515625 9.703125 -7.34375 9.703125 -7.109375 L 9.703125 -0.40625 C 9.703125 -0.171875 9.875 0 10.109375 0 L 15 0 C 15.234375 0 15.40625 -0.171875 15.40625 -0.40625 L 15.40625 -18.078125 C 15.40625 -18.3125 15.234375 -18.484375 15 -18.484375 L 14.53125 -18.484375 C 14.296875 -18.484375 14.140625 -18.640625 14.140625 -18.875 L 14.140625 -19.34375 C 14.140625 -19.578125 13.96875 -19.75 13.734375 -19.75 L 6.921875 -19.75 C 6.6875 -19.75 6.515625 -19.578125 6.515625 -19.34375 L 6.515625 -18.875 C 6.515625 -18.640625 6.34375 -18.484375 6.125 -18.484375 L 5.90625 -18.484375 C 5.671875 -18.484375 5.5 -18.3125 5.5 -18.078125 L 5.5 -17.609375 C 5.5 -17.375 5.34375 -17.21875 5.109375 -17.21875 L 4.640625 -17.21875 C 4.40625 -17.21875 4.234375 -17.046875 4.234375 -16.8125 L 4.234375 -16.34375 C 4.234375 -16.109375 4.078125 -15.953125 3.84375 -15.953125 L 3.375 -15.953125 C 3.140625 -15.953125 2.96875 -15.78125 2.96875 -15.546875 L 2.96875 -15.078125 C 2.96875 -14.84375 2.8125 -14.6875 2.578125 -14.6875 L 1.875 -14.6875 C 1.640625 -14.6875 1.484375 -14.515625 1.484375 -14.28125 Z M 7.578125 -8.65625 C 7.34375 -8.65625 7.171875 -8.8125 7.171875 -9.046875 L 7.171875 -16.8125 C 7.171875 -17.046875 7.34375 -17.21875 7.578125 -17.21875 L 8.03125 -17.21875 C 8.265625 -17.21875 8.4375 -17.375 8.4375 -17.609375 L 8.4375 -18.078125 C 8.4375 -18.3125 8.609375 -18.484375 8.84375 -18.484375 L 9.296875 -18.484375 C 9.53125 -18.484375 9.703125 -18.3125 9.703125 -18.078125 L 9.703125 -10.3125 C 9.703125 -10.078125 9.53125 -9.921875 9.296875 -9.921875 L 8.84375 -9.921875 C 8.609375 -9.921875 8.4375 -9.75 8.4375 -9.515625 L 8.4375 -9.046875 C 8.4375 -8.8125 8.265625 -8.65625 8.03125 -8.65625 Z M 7.578125 -8.65625 "/></g></g></g><g fill="#f2c12e" fill-opacity="1"><g transform="translate(183.798529, 75.4075)"><g><path d="M 5.71875 -0.40625 C 5.71875 -0.171875 5.890625 0 6.125 0 L 11.015625 0 C 11.25 0 11.40625 -0.171875 11.40625 -0.40625 L 11.40625 -18.09375 C 11.40625 -18.328125 11.578125 -18.5 11.8125 -18.5 L 12.296875 -18.5 C 12.53125 -18.5 12.703125 -18.328125 12.703125 -18.09375 L 12.703125 -15.71875 C 12.703125 -15.484375 12.875 -15.3125 13.09375 -15.3125 L 13.5625 -15.3125 C 13.796875 -15.3125 13.96875 -15.140625 13.96875 -14.90625 L 13.96875 -14.453125 C 13.96875 -14.21875 14.140625 -14.046875 14.359375 -14.046875 L 16.09375 -14.046875 C 16.328125 -14.046875 16.5 -14.21875 16.5 -14.453125 L 16.5 -19.34375 C 16.5 -19.578125 16.328125 -19.75 16.09375 -19.75 L 1.03125 -19.75 C 0.796875 -19.75 0.640625 -19.578125 0.640625 -19.34375 L 0.640625 -14.453125 C 0.640625 -14.21875 0.796875 -14.046875 1.03125 -14.046875 L 2.765625 -14.046875 C 3 -14.046875 3.171875 -14.21875 3.171875 -14.453125 L 3.171875 -14.90625 C 3.171875 -15.140625 3.328125 -15.3125 3.5625 -15.3125 L 4.03125 -15.3125 C 4.265625 -15.3125 4.4375 -15.484375 4.4375 -15.71875 L 4.4375 -18.09375 C 4.4375 -18.328125 4.59375 -18.5 4.828125 -18.5 L 5.3125 -18.5 C 5.546875 -18.5 5.71875 -18.328125 5.71875 -18.09375 Z M 5.71875 -0.40625 "/></g></g></g><g fill="#5ce1e6" fill-opacity="1"><g transform="translate(70.003441, 74.475388)"><g><path d="M 1.484375 -0.40625 C 1.484375 -0.140625 1.625 0 1.875 0 L 6.765625 0 C 7.03125 0 7.171875 -0.140625 7.171875 -0.40625 L 7.171875 -11.75 C 7.171875 -12 7.3125 -12.15625 7.578125 -12.15625 L 8.0625 -12.15625 C 8.3125 -12.15625 8.453125 -12 8.453125 -11.75 L 8.453125 -11.28125 C 8.453125 -11.03125 8.609375 -10.890625 8.859375 -10.890625 L 9.328125 -10.890625 C 9.578125 -10.890625 9.71875 -10.734375 9.71875 -10.484375 L 9.71875 -0.40625 C 9.71875 -0.140625 9.875 0 10.125 0 L 15.015625 0 C 15.265625 0 15.421875 -0.140625 15.421875 -0.40625 L 15.421875 -19.34375 C 15.421875 -19.59375 15.265625 -19.75 15.015625 -19.75 L 10.125 -19.75 C 9.875 -19.75 9.71875 -19.59375 9.71875 -19.34375 L 9.71875 -13.8125 C 9.71875 -13.578125 9.890625 -13.421875 10.125 -13.421875 L 10.59375 -13.421875 C 10.828125 -13.421875 10.984375 -13.25 10.984375 -13.015625 L 10.984375 -12.546875 C 10.984375 -12.3125 11.15625 -12.15625 11.390625 -12.15625 L 11.859375 -12.15625 C 12.09375 -12.15625 12.25 -11.984375 12.25 -11.75 L 12.25 -11.28125 C 12.25 -11.046875 12.09375 -10.890625 11.859375 -10.890625 L 11.390625 -10.890625 C 11.15625 -10.890625 10.984375 -11.046875 10.984375 -11.28125 L 10.984375 -11.75 C 10.984375 -11.984375 10.828125 -12.15625 10.59375 -12.15625 L 10.125 -12.15625 C 9.890625 -12.15625 9.71875 -12.3125 9.71875 -12.546875 L 9.71875 -13.015625 C 9.71875 -13.265625 9.578125 -13.421875 9.328125 -13.421875 L 8.859375 -13.421875 C 8.609375 -13.421875 8.453125 -13.5625 8.453125 -13.8125 L 8.453125 -14.28125 C 8.453125 -14.53125 8.3125 -14.6875 8.0625 -14.6875 L 7.59375 -14.6875 C 7.34375 -14.6875 7.1875 -14.828125 7.1875 -15.078125 L 7.1875 -15.546875 C 7.1875 -15.796875 7.046875 -15.953125 6.796875 -15.953125 L 6.328125 -15.953125 C 6.09375 -15.953125 5.921875 -16.109375 5.921875 -16.34375 L 5.921875 -16.8125 C 5.921875 -17.046875 5.765625 -17.21875 5.53125 -17.21875 L 5.0625 -17.21875 C 4.828125 -17.21875 4.65625 -17.375 4.65625 -17.609375 L 4.65625 -18.078125 C 4.65625 -18.3125 4.5 -18.484375 4.265625 -18.484375 L 3.796875 -18.484375 C 3.5625 -18.484375 3.390625 -18.640625 3.390625 -18.875 L 3.390625 -19.34375 C 3.390625 -19.578125 3.234375 -19.75 3 -19.75 L 1.875 -19.75 C 1.625 -19.75 1.484375 -19.59375 1.484375 -19.34375 Z M 1.484375 -0.40625 "/></g></g></g><g fill="#5ce1e6" fill-opacity="1"><g transform="translate(86.894928, 74.475388)"><g><path d="M 1.484375 -0.40625 C 1.484375 -0.171875 1.640625 0 1.875 0 L 6.765625 0 C 7 0 7.171875 -0.171875 7.171875 -0.40625 L 7.171875 -19.34375 C 7.171875 -19.578125 7 -19.75 6.765625 -19.75 L 1.875 -19.75 C 1.640625 -19.75 1.484375 -19.578125 1.484375 -19.34375 Z M 1.484375 -0.40625 "/></g></g></g><g fill="#5ce1e6" fill-opacity="1"><g transform="translate(95.541008, 74.475388)"><g><path d="M 1.484375 -0.40625 C 1.484375 -0.140625 1.625 0 1.875 0 L 6.765625 0 C 7.03125 0 7.171875 -0.140625 7.171875 -0.40625 L 7.171875 -11.75 C 7.171875 -12 7.3125 -12.15625 7.578125 -12.15625 L 8.0625 -12.15625 C 8.3125 -12.15625 8.453125 -12 8.453125 -11.75 L 8.453125 -11.28125 C 8.453125 -11.03125 8.609375 -10.890625 8.859375 -10.890625 L 9.328125 -10.890625 C 9.578125 -10.890625 9.71875 -10.734375 9.71875 -10.484375 L 9.71875 -0.40625 C 9.71875 -0.140625 9.875 0 10.125 0 L 15.015625 0 C 15.265625 0 15.421875 -0.140625 15.421875 -0.40625 L 15.421875 -19.34375 C 15.421875 -19.59375 15.265625 -19.75 15.015625 -19.75 L 10.125 -19.75 C 9.875 -19.75 9.71875 -19.59375 9.71875 -19.34375 L 9.71875 -13.8125 C 9.71875 -13.578125 9.890625 -13.421875 10.125 -13.421875 L 10.59375 -13.421875 C 10.828125 -13.421875 10.984375 -13.25 10.984375 -13.015625 L 10.984375 -12.546875 C 10.984375 -12.3125 11.15625 -12.15625 11.390625 -12.15625 L 11.859375 -12.15625 C 12.09375 -12.15625 12.25 -11.984375 12.25 -11.75 L 12.25 -11.28125 C 12.25 -11.046875 12.09375 -10.890625 11.859375 -10.890625 L 11.390625 -10.890625 C 11.15625 -10.890625 10.984375 -11.046875 10.984375 -11.28125 L 10.984375 -11.75 C 10.984375 -11.984375 10.828125 -12.15625 10.59375 -12.15625 L 10.125 -12.15625 C 9.890625 -12.15625 9.71875 -12.3125 9.71875 -12.546875 L 9.71875 -13.015625 C 9.71875 -13.265625 9.578125 -13.421875 9.328125 -13.421875 L 8.859375 -13.421875 C 8.609375 -13.421875 8.453125 -13.5625 8.453125 -13.8125 L 8.453125 -14.28125 C 8.453125 -14.53125 8.3125 -14.6875 8.0625 -14.6875 L 7.59375 -14.6875 C 7.34375 -14.6875 7.1875 -14.828125 7.1875 -15.078125 L 7.1875 -15.546875 C 7.1875 -15.796875 7.046875 -15.953125 6.796875 -15.953125 L 6.328125 -15.953125 C 6.09375 -15.953125 5.921875 -16.109375 5.921875 -16.34375 L 5.921875 -16.8125 C 5.921875 -17.046875 5.765625 -17.21875 5.53125 -17.21875 L 5.0625 -17.21875 C 4.828125 -17.21875 4.65625 -17.375 4.65625 -17.609375 L 4.65625 -18.078125 C 4.65625 -18.3125 4.5 -18.484375 4.265625 -18.484375 L 3.796875 -18.484375 C 3.5625 -18.484375 3.390625 -18.640625 3.390625 -18.875 L 3.390625 -19.34375 C 3.390625 -19.578125 3.234375 -19.75 3 -19.75 L 1.875 -19.75 C 1.625 -19.75 1.484375 -19.59375 1.484375 -19.34375 Z M 1.484375 -0.40625 "/></g></g></g><g fill="#5ce1e6" fill-opacity="1"><g transform="translate(112.432495, 74.475388)"><g><path d="M 1.90625 -0.40625 C 1.90625 -0.171875 2.0625 0 2.296875 0 L 11.625 0 C 11.859375 0 12.03125 -0.171875 12.03125 -0.40625 L 12.03125 -0.859375 C 12.03125 -1.09375 12.1875 -1.265625 12.421875 -1.265625 L 12.890625 -1.265625 C 13.125 -1.265625 13.296875 -1.4375 13.296875 -1.671875 L 13.296875 -19.34375 C 13.296875 -19.578125 13.125 -19.75 12.890625 -19.75 L 8 -19.75 C 7.734375 -19.75 7.59375 -19.59375 7.59375 -19.34375 L 7.59375 -1.671875 C 7.59375 -1.40625 7.453125 -1.265625 7.1875 -1.265625 L 6.734375 -1.265625 C 6.46875 -1.265625 6.328125 -1.40625 6.328125 -1.671875 L 6.328125 -2.125 C 6.328125 -2.390625 6.1875 -2.53125 5.921875 -2.53125 L 5.4375 -2.53125 C 5.1875 -2.53125 5.046875 -2.671875 5.046875 -2.9375 L 5.046875 -5.296875 C 5.046875 -5.546875 4.890625 -5.703125 4.640625 -5.703125 L 1.03125 -5.703125 C 0.796875 -5.703125 0.640625 -5.53125 0.640625 -5.296875 L 0.640625 -1.671875 C 0.640625 -1.4375 0.796875 -1.265625 1.03125 -1.265625 L 1.5 -1.265625 C 1.734375 -1.265625 1.90625 -1.09375 1.90625 -0.859375 Z M 1.90625 -0.40625 "/></g></g></g><g fill="#5ce1e6" fill-opacity="1"><g transform="translate(127.194095, 74.475388)"><g><path d="M 1.484375 -0.40625 C 1.484375 -0.171875 1.640625 0 1.875 0 L 6.765625 0 C 7 0 7.171875 -0.171875 7.171875 -0.40625 L 7.171875 -5.84375 C 7.171875 -6.078125 7.34375 -6.25 7.578125 -6.25 L 8.03125 -6.25 C 8.265625 -6.25 8.4375 -6.40625 8.4375 -6.640625 L 8.4375 -7.109375 C 8.4375 -7.34375 8.609375 -7.515625 8.84375 -7.515625 L 9.296875 -7.515625 C 9.53125 -7.515625 9.703125 -7.34375 9.703125 -7.109375 L 9.703125 -0.40625 C 9.703125 -0.171875 9.875 0 10.109375 0 L 15 0 C 15.234375 0 15.40625 -0.171875 15.40625 -0.40625 L 15.40625 -18.078125 C 15.40625 -18.3125 15.234375 -18.484375 15 -18.484375 L 14.53125 -18.484375 C 14.296875 -18.484375 14.140625 -18.640625 14.140625 -18.875 L 14.140625 -19.34375 C 14.140625 -19.578125 13.96875 -19.75 13.734375 -19.75 L 6.921875 -19.75 C 6.6875 -19.75 6.515625 -19.578125 6.515625 -19.34375 L 6.515625 -18.875 C 6.515625 -18.640625 6.34375 -18.484375 6.125 -18.484375 L 5.90625 -18.484375 C 5.671875 -18.484375 5.5 -18.3125 5.5 -18.078125 L 5.5 -17.609375 C 5.5 -17.375 5.34375 -17.21875 5.109375 -17.21875 L 4.640625 -17.21875 C 4.40625 -17.21875 4.234375 -17.046875 4.234375 -16.8125 L 4.234375 -16.34375 C 4.234375 -16.109375 4.078125 -15.953125 3.84375 -15.953125 L 3.375 -15.953125 C 3.140625 -15.953125 2.96875 -15.78125 2.96875 -15.546875 L 2.96875 -15.078125 C 2.96875 -14.84375 2.8125 -14.6875 2.578125 -14.6875 L 1.875 -14.6875 C 1.640625 -14.6875 1.484375 -14.515625 1.484375 -14.28125 Z M 7.578125 -8.65625 C 7.34375 -8.65625 7.171875 -8.8125 7.171875 -9.046875 L 7.171875 -16.8125 C 7.171875 -17.046875 7.34375 -17.21875 7.578125 -17.21875 L 8.03125 -17.21875 C 8.265625 -17.21875 8.4375 -17.375 8.4375 -17.609375 L 8.4375 -18.078125 C 8.4375 -18.3125 8.609375 -18.484375 8.84375 -18.484375 L 9.296875 -18.484375 C 9.53125 -18.484375 9.703125 -18.3125 9.703125 -18.078125 L 9.703125 -10.3125 C 9.703125 -10.078125 9.53125 -9.921875 9.296875 -9.921875 L 8.84375 -9.921875 C 8.609375 -9.921875 8.4375 -9.75 8.4375 -9.515625 L 8.4375 -9.046875 C 8.4375 -8.8125 8.265625 -8.65625 8.03125 -8.65625 Z M 7.578125 -8.65625 "/></g></g></g><g fill="#5ce1e6" fill-opacity="1"><g transform="translate(144.0645, 74.475388)"><g/></g></g><g fill="#5ce1e6" fill-opacity="1"><g transform="translate(149.336498, 74.475388)"><g><path d="M 4.015625 -0.40625 C 4.015625 -0.171875 4.171875 0 4.40625 0 L 13.71875 0 C 13.96875 0 14.140625 -0.171875 14.140625 -0.421875 L 14.140625 -0.84375 C 14.140625 -1.09375 14.296875 -1.265625 14.5625 -1.265625 L 14.984375 -1.265625 C 15.234375 -1.265625 15.40625 -1.4375 15.40625 -1.6875 L 15.40625 -5.28125 C 15.40625 -5.53125 15.234375 -5.703125 14.984375 -5.703125 L 10.125 -5.703125 C 9.875 -5.703125 9.703125 -5.53125 9.703125 -5.28125 L 9.703125 -1.671875 C 9.703125 -1.4375 9.53125 -1.265625 9.296875 -1.265625 L 8.84375 -1.265625 C 8.609375 -1.265625 8.4375 -1.4375 8.4375 -1.671875 L 8.4375 -2.125 C 8.4375 -2.359375 8.265625 -2.53125 8.03125 -2.53125 L 7.578125 -2.53125 C 7.34375 -2.53125 7.171875 -2.703125 7.171875 -2.9375 L 7.171875 -16.8125 C 7.171875 -17.046875 7.34375 -17.21875 7.578125 -17.21875 L 8.03125 -17.21875 C 8.265625 -17.21875 8.4375 -17.375 8.4375 -17.609375 L 8.4375 -18.078125 C 8.4375 -18.3125 8.609375 -18.484375 8.84375 -18.484375 L 9.296875 -18.484375 C 9.53125 -18.484375 9.703125 -18.3125 9.703125 -18.078125 L 9.703125 -15.734375 C 9.703125 -15.484375 9.875 -15.3125 10.125 -15.3125 L 10.5625 -15.3125 C 10.796875 -15.3125 10.96875 -15.140625 10.96875 -14.90625 L 10.96875 -14.46875 C 10.96875 -14.21875 11.140625 -14.046875 11.390625 -14.046875 L 14.984375 -14.046875 C 15.234375 -14.046875 15.40625 -14.21875 15.40625 -14.46875 L 15.40625 -18.0625 C 15.40625 -18.3125 15.234375 -18.484375 14.984375 -18.484375 L 14.234375 -18.484375 C 13.984375 -18.484375 13.8125 -18.640625 13.8125 -18.90625 L 13.8125 -19.328125 C 13.8125 -19.578125 13.640625 -19.75 13.390625 -19.75 L 4.40625 -19.75 C 4.171875 -19.75 4.015625 -19.578125 4.015625 -19.34375 L 4.015625 -18.875 C 4.015625 -18.640625 3.84375 -18.484375 3.609375 -18.484375 L 3.140625 -18.484375 C 2.90625 -18.484375 2.75 -18.3125 2.75 -18.078125 L 2.75 -17.609375 C 2.75 -17.375 2.578125 -17.21875 2.34375 -17.21875 L 1.875 -17.21875 C 1.640625 -17.21875 1.484375 -17.046875 1.484375 -16.8125 L 1.484375 -2.9375 C 1.484375 -2.703125 1.640625 -2.53125 1.875 -2.53125 L 2.34375 -2.53125 C 2.578125 -2.53125 2.75 -2.359375 2.75 -2.125 L 2.75 -1.671875 C 2.75 -1.4375 2.90625 -1.265625 3.140625 -1.265625 L 3.609375 -1.265625 C 3.84375 -1.265625 4.015625 -1.09375 4.015625 -0.859375 Z M 4.015625 -0.40625 "/></g></g></g><g fill="#5ce1e6" fill-opacity="1"><g transform="translate(165.996015, 74.475388)"><g><path d="M 1.484375 -0.40625 C 1.484375 -0.171875 1.640625 0 1.875 0 L 6.765625 0 C 7 0 7.171875 -0.171875 7.171875 -0.40625 L 7.171875 -5.84375 C 7.171875 -6.078125 7.34375 -6.25 7.578125 -6.25 L 8.03125 -6.25 C 8.265625 -6.25 8.4375 -6.40625 8.4375 -6.640625 L 8.4375 -7.109375 C 8.4375 -7.34375 8.609375 -7.515625 8.84375 -7.515625 L 9.296875 -7.515625 C 9.53125 -7.515625 9.703125 -7.34375 9.703125 -7.109375 L 9.703125 -0.40625 C 9.703125 -0.171875 9.875 0 10.109375 0 L 15 0 C 15.234375 0 15.40625 -0.171875 15.40625 -0.40625 L 15.40625 -18.078125 C 15.40625 -18.3125 15.234375 -18.484375 15 -18.484375 L 14.53125 -18.484375 C 14.296875 -18.484375 14.140625 -18.640625 14.140625 -18.875 L 14.140625 -19.34375 C 14.140625 -19.578125 13.96875 -19.75 13.734375 -19.75 L 6.921875 -19.75 C 6.6875 -19.75 6.515625 -19.578125 6.515625 -19.34375 L 6.515625 -18.875 C 6.515625 -18.640625 6.34375 -18.484375 6.125 -18.484375 L 5.90625 -18.484375 C 5.671875 -18.484375 5.5 -18.3125 5.5 -18.078125 L 5.5 -17.609375 C 5.5 -17.375 5.34375 -17.21875 5.109375 -17.21875 L 4.640625 -17.21875 C 4.40625 -17.21875 4.234375 -17.046875 4.234375 -16.8125 L 4.234375 -16.34375 C 4.234375 -16.109375 4.078125 -15.953125 3.84375 -15.953125 L 3.375 -15.953125 C 3.140625 -15.953125 2.96875 -15.78125 2.96875 -15.546875 L 2.96875 -15.078125 C 2.96875 -14.84375 2.8125 -14.6875 2.578125 -14.6875 L 1.875 -14.6875 C 1.640625 -14.6875 1.484375 -14.515625 1.484375 -14.28125 Z M 7.578125 -8.65625 C 7.34375 -8.65625 7.171875 -8.8125 7.171875 -9.046875 L 7.171875 -16.8125 C 7.171875 -17.046875 7.34375 -17.21875 7.578125 -17.21875 L 8.03125 -17.21875 C 8.265625 -17.21875 8.4375 -17.375 8.4375 -17.609375 L 8.4375 -18.078125 C 8.4375 -18.3125 8.609375 -18.484375 8.84375 -18.484375 L 9.296875 -18.484375 C 9.53125 -18.484375 9.703125 -18.3125 9.703125 -18.078125 L 9.703125 -10.3125 C 9.703125 -10.078125 9.53125 -9.921875 9.296875 -9.921875 L 8.84375 -9.921875 C 8.609375 -9.921875 8.4375 -9.75 8.4375 -9.515625 L 8.4375 -9.046875 C 8.4375 -8.8125 8.265625 -8.65625 8.03125 -8.65625 Z M 7.578125 -8.65625 "/></g></g></g><g fill="#5ce1e6" fill-opacity="1"><g transform="translate(182.866419, 74.475388)"><g><path d="M 5.71875 -0.40625 C 5.71875 -0.171875 5.890625 0 6.125 0 L 11.015625 0 C 11.25 0 11.40625 -0.171875 11.40625 -0.40625 L 11.40625 -18.09375 C 11.40625 -18.328125 11.578125 -18.5 11.8125 -18.5 L 12.296875 -18.5 C 12.53125 -18.5 12.703125 -18.328125 12.703125 -18.09375 L 12.703125 -15.71875 C 12.703125 -15.484375 12.875 -15.3125 13.09375 -15.3125 L 13.5625 -15.3125 C 13.796875 -15.3125 13.96875 -15.140625 13.96875 -14.90625 L 13.96875 -14.453125 C 13.96875 -14.21875 14.140625 -14.046875 14.359375 -14.046875 L 16.09375 -14.046875 C 16.328125 -14.046875 16.5 -14.21875 16.5 -14.453125 L 16.5 -19.34375 C 16.5 -19.578125 16.328125 -19.75 16.09375 -19.75 L 1.03125 -19.75 C 0.796875 -19.75 0.640625 -19.578125 0.640625 -19.34375 L 0.640625 -14.453125 C 0.640625 -14.21875 0.796875 -14.046875 1.03125 -14.046875 L 2.765625 -14.046875 C 3 -14.046875 3.171875 -14.21875 3.171875 -14.453125 L 3.171875 -14.90625 C 3.171875 -15.140625 3.328125 -15.3125 3.5625 -15.3125 L 4.03125 -15.3125 C 4.265625 -15.3125 4.4375 -15.484375 4.4375 -15.71875 L 4.4375 -18.09375 C 4.4375 -18.328125 4.59375 -18.5 4.828125 -18.5 L 5.3125 -18.5 C 5.546875 -18.5 5.71875 -18.328125 5.71875 -18.09375 Z M 5.71875 -0.40625 "/></g></g></g><g clip-path="url(#584d8cd7ee)"><path fill="#663300" d="M -16.210938 0 L 4.355469 0 L 4.355469 10.28125 L -16.210938 10.28125 Z M -16.210938 0 " fill-opacity="1" fill-rule="evenodd"/></g><g clip-path="url(#4ebf0e9fed)"><path fill="#f85041" d="M -15.167969 1.039062 L 3.316406 1.039062 L 3.316406 9.242188 L -15.167969 9.242188 Z M -15.167969 1.039062 " fill-opacity="1" fill-rule="evenodd"/></g><g clip-path="url(#1097d04f9a)"><path fill="#e6bf5c" d="M -13.867188 1.621094 L 2.015625 1.621094 C 2.464844 1.621094 2.832031 1.988281 2.832031 2.433594 L 2.832031 3.347656 C 2.832031 3.796875 2.464844 4.167969 2.015625 4.167969 L -13.867188 4.167969 C -14.316406 4.167969 -14.679688 3.796875 -14.679688 3.347656 L -14.679688 2.433594 C -14.679688 1.988281 -14.316406 1.621094 -13.867188 1.621094 Z M -13.867188 1.621094 " fill-opacity="1" fill-rule="evenodd"/></g><g clip-path="url(#ac1da2c961)"><path fill="#663300" d="M 3.027344 0 L 23.59375 0 L 23.59375 10.28125 L 3.027344 10.28125 Z M 3.027344 0 " fill-opacity="1" fill-rule="evenodd"/></g><path fill="#f85041" d="M 4.066406 1.039062 L 22.550781 1.039062 L 22.550781 9.242188 L 4.066406 9.242188 Z M 4.066406 1.039062 " fill-opacity="1" fill-rule="evenodd"/><path fill="#e6bf5c" d="M 5.367188 1.621094 L 21.25 1.621094 C 21.699219 1.621094 22.066406 1.988281 22.066406 2.433594 L 22.066406 3.347656 C 22.066406 3.796875 21.699219 4.167969 21.25 4.167969 L 5.367188 4.167969 C 4.917969 4.167969 4.554688 3.796875 4.554688 3.347656 L 4.554688 2.433594 C 4.554688 1.988281 4.917969 1.621094 5.367188 1.621094 Z M 5.367188 1.621094 " fill-opacity="1" fill-rule="evenodd"/><g clip-path="url(#69a830b133)"><path fill="#663300" d="M 21.859375 0 L 42.425781 0 L 42.425781 10.28125 L 21.859375 10.28125 Z M 21.859375 0 " fill-opacity="1" fill-rule="evenodd"/></g><path fill="#f85041" d="M 22.898438 1.039062 L 41.386719 1.039062 L 41.386719 9.242188 L 22.898438 9.242188 Z M 22.898438 1.039062 " fill-opacity="1" fill-rule="evenodd"/><path fill="#e6bf5c" d="M 24.203125 1.621094 L 40.082031 1.621094 C 40.53125 1.621094 40.902344 1.988281 40.902344 2.433594 L 40.902344 3.347656 C 40.902344 3.796875 40.53125 4.167969 40.082031 4.167969 L 24.203125 4.167969 C 23.753906 4.167969 23.386719 3.796875 23.386719 3.347656 L 23.386719 2.433594 C 23.386719 1.988281 23.753906 1.621094 24.203125 1.621094 Z M 24.203125 1.621094 " fill-opacity="1" fill-rule="evenodd"/><g clip-path="url(#be1e720a9f)"><path fill="#663300" d="M 41.09375 0 L 61.660156 0 L 61.660156 10.28125 L 41.09375 10.28125 Z M 41.09375 0 " fill-opacity="1" fill-rule="evenodd"/></g><path fill="#f85041" d="M 42.136719 1.039062 L 60.621094 1.039062 L 60.621094 9.242188 L 42.136719 9.242188 Z M 42.136719 1.039062 " fill-opacity="1" fill-rule="evenodd"/><path fill="#e6bf5c" d="M 43.4375 1.621094 L 59.320312 1.621094 C 59.765625 1.621094 60.136719 1.988281 60.136719 2.433594 L 60.136719 3.347656 C 60.136719 3.796875 59.769531 4.167969 59.320312 4.167969 L 43.4375 4.167969 C 42.988281 4.167969 42.625 3.796875 42.625 3.347656 L 42.625 2.433594 C 42.625 1.988281 42.988281 1.621094 43.4375 1.621094 Z M 43.4375 1.621094 " fill-opacity="1" fill-rule="evenodd"/><g clip-path="url(#861211403e)"><path fill="#663300" d="M 60.957031 0 L 81.523438 0 L 81.523438 10.28125 L 60.957031 10.28125 Z M 60.957031 0 " fill-opacity="1" fill-rule="evenodd"/></g><path fill="#f85041" d="M 61.996094 1.039062 L 80.480469 1.039062 L 80.480469 9.242188 L 61.996094 9.242188 Z M 61.996094 1.039062 " fill-opacity="1" fill-rule="evenodd"/><path fill="#e6bf5c" d="M 63.300781 1.621094 L 79.179688 1.621094 C 79.628906 1.621094 79.996094 1.988281 79.996094 2.433594 L 79.996094 3.347656 C 79.996094 3.796875 79.628906 4.167969 79.179688 4.167969 L 63.300781 4.167969 C 62.851562 4.167969 62.484375 3.796875 62.484375 3.347656 L 62.484375 2.433594 C 62.484375 1.988281 62.851562 1.621094 63.300781 1.621094 Z M 63.300781 1.621094 " fill-opacity="1" fill-rule="evenodd"/><g clip-path="url(#156f74e309)"><path fill="#663300" d="M 80.371094 0 L 100.9375 0 L 100.9375 10.28125 L 80.371094 10.28125 Z M 80.371094 0 " fill-opacity="1" fill-rule="evenodd"/></g><path fill="#f85041" d="M 81.414062 1.039062 L 99.898438 1.039062 L 99.898438 9.242188 L 81.414062 9.242188 Z M 81.414062 1.039062 " fill-opacity="1" fill-rule="evenodd"/><path fill="#e6bf5c" d="M 82.714844 1.621094 L 98.597656 1.621094 C 99.042969 1.621094 99.414062 1.988281 99.414062 2.433594 L 99.414062 3.347656 C 99.414062 3.796875 99.042969 4.167969 98.597656 4.167969 L 82.714844 4.167969 C 82.265625 4.167969 81.902344 3.796875 81.902344 3.347656 L 81.902344 2.433594 C 81.902344 1.988281 82.265625 1.621094 82.714844 1.621094 Z M 82.714844 1.621094 " fill-opacity="1" fill-rule="evenodd"/><g clip-path="url(#b1a113edad)"><path fill="#663300" d="M 100.054688 0 L 120.621094 0 L 120.621094 10.28125 L 100.054688 10.28125 Z M 100.054688 0 " fill-opacity="1" fill-rule="evenodd"/></g><path fill="#f85041" d="M 101.09375 1.039062 L 119.578125 1.039062 L 119.578125 9.242188 L 101.09375 9.242188 Z M 101.09375 1.039062 " fill-opacity="1" fill-rule="evenodd"/><path fill="#e6bf5c" d="M 102.394531 1.621094 L 118.277344 1.621094 C 118.726562 1.621094 119.09375 1.988281 119.09375 2.433594 L 119.09375 3.347656 C 119.09375 3.796875 118.726562 4.167969 118.277344 4.167969 L 102.394531 4.167969 C 101.949219 4.167969 101.582031 3.796875 101.582031 3.347656 L 101.582031 2.433594 C 101.582031 1.988281 101.945312 1.621094 102.394531 1.621094 Z M 102.394531 1.621094 " fill-opacity="1" fill-rule="evenodd"/><g clip-path="url(#485bf32be2)"><path fill="#663300" d="M 119.46875 0 L 140.035156 0 L 140.035156 10.28125 L 119.46875 10.28125 Z M 119.46875 0 " fill-opacity="1" fill-rule="evenodd"/></g><path fill="#f85041" d="M 120.507812 1.039062 L 138.996094 1.039062 L 138.996094 9.242188 L 120.507812 9.242188 Z M 120.507812 1.039062 " fill-opacity="1" fill-rule="evenodd"/><path fill="#e6bf5c" d="M 121.8125 1.621094 L 137.691406 1.621094 C 138.140625 1.621094 138.511719 1.988281 138.511719 2.433594 L 138.511719 3.347656 C 138.511719 3.796875 138.140625 4.167969 137.691406 4.167969 L 121.8125 4.167969 C 121.363281 4.167969 121 3.796875 121 3.347656 L 121 2.433594 C 121 1.988281 121.363281 1.621094 121.8125 1.621094 Z M 121.8125 1.621094 " fill-opacity="1" fill-rule="evenodd"/><g clip-path="url(#a2718b5e2e)"><path fill="#663300" d="M 139.152344 0 L 159.714844 0 L 159.714844 10.28125 L 139.152344 10.28125 Z M 139.152344 0 " fill-opacity="1" fill-rule="evenodd"/></g><path fill="#f85041" d="M 140.191406 1.039062 L 158.675781 1.039062 L 158.675781 9.242188 L 140.191406 9.242188 Z M 140.191406 1.039062 " fill-opacity="1" fill-rule="evenodd"/><path fill="#e6bf5c" d="M 141.492188 1.621094 L 157.375 1.621094 C 157.824219 1.621094 158.191406 1.988281 158.191406 2.433594 L 158.191406 3.347656 C 158.191406 3.796875 157.824219 4.167969 157.375 4.167969 L 141.492188 4.167969 C 141.042969 4.167969 140.679688 3.796875 140.679688 3.347656 L 140.679688 2.433594 C 140.679688 1.988281 141.042969 1.621094 141.492188 1.621094 Z M 141.492188 1.621094 " fill-opacity="1" fill-rule="evenodd"/><g clip-path="url(#049307f9e1)"><path fill="#663300" d="M 158.566406 0 L 179.132812 0 L 179.132812 10.28125 L 158.566406 10.28125 Z M 158.566406 0 " fill-opacity="1" fill-rule="evenodd"/></g><path fill="#f85041" d="M 159.605469 1.039062 L 178.09375 1.039062 L 178.09375 9.242188 L 159.605469 9.242188 Z M 159.605469 1.039062 " fill-opacity="1" fill-rule="evenodd"/><path fill="#e6bf5c" d="M 160.910156 1.621094 L 176.789062 1.621094 C 177.238281 1.621094 177.609375 1.988281 177.609375 2.433594 L 177.609375 3.347656 C 177.609375 3.796875 177.238281 4.167969 176.789062 4.167969 L 160.910156 4.167969 C 160.460938 4.167969 160.09375 3.796875 160.09375 3.347656 L 160.09375 2.433594 C 160.09375 1.988281 160.460938 1.621094 160.910156 1.621094 Z M 160.910156 1.621094 " fill-opacity="1" fill-rule="evenodd"/><g clip-path="url(#162db88c90)"><path fill="#663300" d="M 178.246094 0 L 198.8125 0 L 198.8125 10.28125 L 178.246094 10.28125 Z M 178.246094 0 " fill-opacity="1" fill-rule="evenodd"/></g><path fill="#f85041" d="M 179.289062 1.039062 L 197.773438 1.039062 L 197.773438 9.242188 L 179.289062 9.242188 Z M 179.289062 1.039062 " fill-opacity="1" fill-rule="evenodd"/><path fill="#e6bf5c" d="M 180.589844 1.621094 L 196.472656 1.621094 C 196.921875 1.621094 197.289062 1.988281 197.289062 2.433594 L 197.289062 3.347656 C 197.289062 3.796875 196.921875 4.167969 196.472656 4.167969 L 180.589844 4.167969 C 180.140625 4.167969 179.777344 3.796875 179.777344 3.347656 L 179.777344 2.433594 C 179.777344 1.988281 180.140625 1.621094 180.589844 1.621094 Z M 180.589844 1.621094 " fill-opacity="1" fill-rule="evenodd"/><g clip-path="url(#0d32e3d065)"><path fill="#663300" d="M 197.664062 0 L 218.230469 0 L 218.230469 10.28125 L 197.664062 10.28125 Z M 197.664062 0 " fill-opacity="1" fill-rule="evenodd"/></g><path fill="#f85041" d="M 198.703125 1.039062 L 217.191406 1.039062 L 217.191406 9.242188 L 198.703125 9.242188 Z M 198.703125 1.039062 " fill-opacity="1" fill-rule="evenodd"/><path fill="#e6bf5c" d="M 200.007812 1.621094 L 215.886719 1.621094 C 216.335938 1.621094 216.707031 1.988281 216.707031 2.433594 L 216.707031 3.347656 C 216.707031 3.796875 216.335938 4.167969 215.886719 4.167969 L 200.007812 4.167969 C 199.558594 4.167969 199.191406 3.796875 199.191406 3.347656 L 199.191406 2.433594 C 199.191406 1.988281 199.558594 1.621094 200.007812 1.621094 Z M 200.007812 1.621094 " fill-opacity="1" fill-rule="evenodd"/><g clip-path="url(#5683cabc5b)"><path fill="#663300" d="M 217.34375 0 L 237.910156 0 L 237.910156 10.28125 L 217.34375 10.28125 Z M 217.34375 0 " fill-opacity="1" fill-rule="evenodd"/></g><path fill="#f85041" d="M 218.386719 1.039062 L 236.871094 1.039062 L 236.871094 9.242188 L 218.386719 9.242188 Z M 218.386719 1.039062 " fill-opacity="1" fill-rule="evenodd"/><path fill="#e6bf5c" d="M 219.6875 1.621094 L 235.570312 1.621094 C 236.015625 1.621094 236.386719 1.988281 236.386719 2.433594 L 236.386719 3.347656 C 236.386719 3.796875 236.019531 4.167969 235.570312 4.167969 L 219.6875 4.167969 C 219.238281 4.167969 218.875 3.796875 218.875 3.347656 L 218.875 2.433594 C 218.875 1.988281 219.238281 1.621094 219.6875 1.621094 Z M 219.6875 1.621094 " fill-opacity="1" fill-rule="evenodd"/><g clip-path="url(#ff5e70e72d)"><path fill="#663300" d="M 236.765625 0 L 257.328125 0 L 257.328125 10.28125 L 236.765625 10.28125 Z M 236.765625 0 " fill-opacity="1" fill-rule="evenodd"/></g><path fill="#f85041" d="M 237.804688 1.039062 L 256.289062 1.039062 L 256.289062 9.242188 L 237.804688 9.242188 Z M 237.804688 1.039062 " fill-opacity="1" fill-rule="evenodd"/><path fill="#e6bf5c" d="M 239.105469 1.621094 L 254.988281 1.621094 C 255.4375 1.621094 255.804688 1.988281 255.804688 2.433594 L 255.804688 3.347656 C 255.804688 3.796875 255.4375 4.167969 254.988281 4.167969 L 239.105469 4.167969 C 238.65625 4.167969 238.292969 3.796875 238.292969 3.347656 L 238.292969 2.433594 C 238.292969 1.988281 238.65625 1.621094 239.105469 1.621094 Z M 239.105469 1.621094 " fill-opacity="1" fill-rule="evenodd"/><g clip-path="url(#a5ca8c6fac)"><path fill="#663300" d="M 256.441406 0 L 277.007812 0 L 277.007812 10.28125 L 256.441406 10.28125 Z M 256.441406 0 " fill-opacity="1" fill-rule="evenodd"/></g><g clip-path="url(#7f30584c09)"><path fill="#f85041" d="M 257.480469 1.039062 L 275.96875 1.039062 L 275.96875 9.242188 L 257.480469 9.242188 Z M 257.480469 1.039062 " fill-opacity="1" fill-rule="evenodd"/></g><g clip-path="url(#c8ff61a352)"><path fill="#e6bf5c" d="M 258.785156 1.621094 L 274.664062 1.621094 C 275.113281 1.621094 275.484375 1.988281 275.484375 2.433594 L 275.484375 3.347656 C 275.484375 3.796875 275.113281 4.167969 274.664062 4.167969 L 258.785156 4.167969 C 258.335938 4.167969 257.972656 3.796875 257.972656 3.347656 L 257.972656 2.433594 C 257.972656 1.988281 258.335938 1.621094 258.785156 1.621094 Z M 258.785156 1.621094 " fill-opacity="1" fill-rule="evenodd"/></g><g clip-path="url(#7bae88110c)"><path fill="#663300" d="M -19.667969 183.722656 L 0.898438 183.722656 L 0.898438 194.007812 L -19.667969 194.007812 Z M -19.667969 183.722656 " fill-opacity="1" fill-rule="evenodd"/></g><g clip-path="url(#019e9006e4)"><path fill="#663300" d="M -10.417969 194.007812 L 10.148438 194.007812 L 10.148438 204.289062 L -10.417969 204.289062 Z M -10.417969 194.007812 " fill-opacity="1" fill-rule="evenodd"/></g><g clip-path="url(#c05189cfcd)"><path fill="#663300" d="M -0.132812 183.722656 L 20.433594 183.722656 L 20.433594 194.007812 L -0.132812 194.007812 Z M -0.132812 183.722656 " fill-opacity="1" fill-rule="evenodd"/></g><g clip-path="url(#046b5b19f8)"><path fill="#f85041" d="M 0.902344 184.761719 L 19.390625 184.761719 L 19.390625 192.964844 L 0.902344 192.964844 Z M 0.902344 184.761719 " fill-opacity="1" fill-rule="evenodd"/></g><path fill="#e6bf5c" d="M 2.203125 185.339844 L 18.089844 185.339844 C 18.539062 185.339844 18.902344 185.707031 18.902344 186.15625 L 18.902344 187.074219 C 18.902344 187.523438 18.539062 187.886719 18.089844 187.886719 L 2.203125 187.886719 C 1.761719 187.886719 1.390625 187.523438 1.390625 187.074219 L 1.390625 186.15625 C 1.390625 185.707031 1.761719 185.339844 2.203125 185.339844 Z M 2.203125 185.339844 " fill-opacity="1" fill-rule="evenodd"/><g clip-path="url(#79bc316975)"><path fill="#663300" d="M 8.816406 194.007812 L 29.382812 194.007812 L 29.382812 204.289062 L 8.816406 204.289062 Z M 8.816406 194.007812 " fill-opacity="1" fill-rule="evenodd"/></g><g clip-path="url(#293477170f)"><path fill="#663300" d="M 19.101562 183.722656 L 39.667969 183.722656 L 39.667969 194.007812 L 19.101562 194.007812 Z M 19.101562 183.722656 " fill-opacity="1" fill-rule="evenodd"/></g><path fill="#f85041" d="M 20.136719 184.761719 L 38.628906 184.761719 L 38.628906 192.964844 L 20.136719 192.964844 Z M 20.136719 184.761719 " fill-opacity="1" fill-rule="evenodd"/><path fill="#e6bf5c" d="M 21.441406 185.339844 L 37.324219 185.339844 C 37.773438 185.339844 38.140625 185.707031 38.140625 186.15625 L 38.140625 187.074219 C 38.140625 187.523438 37.773438 187.886719 37.324219 187.886719 L 21.441406 187.886719 C 20.996094 187.886719 20.625 187.523438 20.625 187.074219 L 20.625 186.15625 C 20.625 185.707031 20.996094 185.339844 21.441406 185.339844 Z M 21.441406 185.339844 " fill-opacity="1" fill-rule="evenodd"/><g clip-path="url(#13a33f2bd2)"><path fill="#663300" d="M 27.648438 194.007812 L 48.214844 194.007812 L 48.214844 204.289062 L 27.648438 204.289062 Z M 27.648438 194.007812 " fill-opacity="1" fill-rule="evenodd"/></g><g clip-path="url(#a5fc51fe31)"><path fill="#663300" d="M 37.933594 183.722656 L 58.5 183.722656 L 58.5 194.007812 L 37.933594 194.007812 Z M 37.933594 183.722656 " fill-opacity="1" fill-rule="evenodd"/></g><path fill="#f85041" d="M 38.972656 184.761719 L 57.460938 184.761719 L 57.460938 192.964844 L 38.972656 192.964844 Z M 38.972656 184.761719 " fill-opacity="1" fill-rule="evenodd"/><path fill="#e6bf5c" d="M 40.273438 185.339844 L 56.160156 185.339844 C 56.605469 185.339844 56.972656 185.707031 56.972656 186.15625 L 56.972656 187.074219 C 56.972656 187.523438 56.609375 187.886719 56.160156 187.886719 L 40.273438 187.886719 C 39.828125 187.886719 39.460938 187.523438 39.460938 187.074219 L 39.460938 186.15625 C 39.460938 185.707031 39.828125 185.339844 40.273438 185.339844 Z M 40.273438 185.339844 " fill-opacity="1" fill-rule="evenodd"/><g clip-path="url(#7065f1a27f)"><path fill="#663300" d="M 46.886719 194.007812 L 67.453125 194.007812 L 67.453125 204.289062 L 46.886719 204.289062 Z M 46.886719 194.007812 " fill-opacity="1" fill-rule="evenodd"/></g><g clip-path="url(#fb37fd7ab1)"><path fill="#663300" d="M 57.171875 183.722656 L 77.738281 183.722656 L 77.738281 194.007812 L 57.171875 194.007812 Z M 57.171875 183.722656 " fill-opacity="1" fill-rule="evenodd"/></g><path fill="#f85041" d="M 58.207031 184.761719 L 76.695312 184.761719 L 76.695312 192.964844 L 58.207031 192.964844 Z M 58.207031 184.761719 " fill-opacity="1" fill-rule="evenodd"/><path fill="#e6bf5c" d="M 59.507812 185.339844 L 75.394531 185.339844 C 75.84375 185.339844 76.207031 185.707031 76.207031 186.15625 L 76.207031 187.074219 C 76.207031 187.523438 75.84375 187.886719 75.394531 187.886719 L 59.507812 187.886719 C 59.0625 187.886719 58.695312 187.523438 58.695312 187.074219 L 58.695312 186.15625 C 58.695312 185.707031 59.0625 185.339844 59.507812 185.339844 Z M 59.507812 185.339844 " fill-opacity="1" fill-rule="evenodd"/><g clip-path="url(#d13741bb0c)"><path fill="#663300" d="M 66.746094 194.007812 L 87.3125 194.007812 L 87.3125 204.289062 L 66.746094 204.289062 Z M 66.746094 194.007812 " fill-opacity="1" fill-rule="evenodd"/></g><g clip-path="url(#7481362335)"><path fill="#663300" d="M 77.03125 183.722656 L 97.597656 183.722656 L 97.597656 194.007812 L 77.03125 194.007812 Z M 77.03125 183.722656 " fill-opacity="1" fill-rule="evenodd"/></g><path fill="#f85041" d="M 78.066406 184.761719 L 96.558594 184.761719 L 96.558594 192.964844 L 78.066406 192.964844 Z M 78.066406 184.761719 " fill-opacity="1" fill-rule="evenodd"/><path fill="#e6bf5c" d="M 79.371094 185.339844 L 95.253906 185.339844 C 95.703125 185.339844 96.070312 185.707031 96.070312 186.15625 L 96.070312 187.074219 C 96.070312 187.523438 95.703125 187.886719 95.253906 187.886719 L 79.371094 187.886719 C 78.925781 187.886719 78.558594 187.523438 78.558594 187.074219 L 78.558594 186.15625 C 78.558594 185.707031 78.925781 185.339844 79.371094 185.339844 Z M 79.371094 185.339844 " fill-opacity="1" fill-rule="evenodd"/><g clip-path="url(#d70c602206)"><path fill="#663300" d="M 86.164062 194.007812 L 106.730469 194.007812 L 106.730469 204.289062 L 86.164062 204.289062 Z M 86.164062 194.007812 " fill-opacity="1" fill-rule="evenodd"/></g><g clip-path="url(#0515c8e32e)"><path fill="#663300" d="M 96.449219 183.722656 L 117.015625 183.722656 L 117.015625 194.007812 L 96.449219 194.007812 Z M 96.449219 183.722656 " fill-opacity="1" fill-rule="evenodd"/></g><path fill="#f85041" d="M 97.484375 184.761719 L 115.972656 184.761719 L 115.972656 192.964844 L 97.484375 192.964844 Z M 97.484375 184.761719 " fill-opacity="1" fill-rule="evenodd"/><path fill="#e6bf5c" d="M 98.785156 185.339844 L 114.671875 185.339844 C 115.121094 185.339844 115.484375 185.707031 115.484375 186.15625 L 115.484375 187.074219 C 115.484375 187.523438 115.121094 187.886719 114.671875 187.886719 L 98.785156 187.886719 C 98.339844 187.886719 97.972656 187.523438 97.972656 187.074219 L 97.972656 186.15625 C 97.972656 185.707031 98.339844 185.339844 98.785156 185.339844 Z M 98.785156 185.339844 " fill-opacity="1" fill-rule="evenodd"/><g clip-path="url(#e378178022)"><path fill="#663300" d="M 105.84375 194.007812 L 126.410156 194.007812 L 126.410156 204.289062 L 105.84375 204.289062 Z M 105.84375 194.007812 " fill-opacity="1" fill-rule="evenodd"/></g><g clip-path="url(#cc36950873)"><path fill="#663300" d="M 116.128906 183.722656 L 136.695312 183.722656 L 136.695312 194.007812 L 116.128906 194.007812 Z M 116.128906 183.722656 " fill-opacity="1" fill-rule="evenodd"/></g><path fill="#f85041" d="M 117.164062 184.761719 L 135.65625 184.761719 L 135.65625 192.964844 L 117.164062 192.964844 Z M 117.164062 184.761719 " fill-opacity="1" fill-rule="evenodd"/><path fill="#e6bf5c" d="M 118.46875 185.339844 L 134.351562 185.339844 C 134.800781 185.339844 135.167969 185.707031 135.167969 186.15625 L 135.167969 187.074219 C 135.167969 187.523438 134.800781 187.886719 134.351562 187.886719 L 118.46875 187.886719 C 118.023438 187.886719 117.652344 187.523438 117.652344 187.074219 L 117.652344 186.15625 C 117.652344 185.707031 118.023438 185.339844 118.46875 185.339844 Z M 118.46875 185.339844 " fill-opacity="1" fill-rule="evenodd"/><g clip-path="url(#2727932281)"><path fill="#663300" d="M 125.261719 194.007812 L 145.824219 194.007812 L 145.824219 204.289062 L 125.261719 204.289062 Z M 125.261719 194.007812 " fill-opacity="1" fill-rule="evenodd"/></g><g clip-path="url(#7b0ce4ece9)"><path fill="#663300" d="M 135.546875 183.722656 L 156.109375 183.722656 L 156.109375 194.007812 L 135.546875 194.007812 Z M 135.546875 183.722656 " fill-opacity="1" fill-rule="evenodd"/></g><path fill="#f85041" d="M 136.582031 184.761719 L 155.070312 184.761719 L 155.070312 192.964844 L 136.582031 192.964844 Z M 136.582031 184.761719 " fill-opacity="1" fill-rule="evenodd"/><path fill="#e6bf5c" d="M 137.882812 185.339844 L 153.769531 185.339844 C 154.21875 185.339844 154.582031 185.707031 154.582031 186.15625 L 154.582031 187.074219 C 154.582031 187.523438 154.21875 187.886719 153.769531 187.886719 L 137.882812 187.886719 C 137.4375 187.886719 137.070312 187.523438 137.070312 187.074219 L 137.070312 186.15625 C 137.070312 185.707031 137.4375 185.339844 137.882812 185.339844 Z M 137.882812 185.339844 " fill-opacity="1" fill-rule="evenodd"/><g clip-path="url(#e44e8bc4e1)"><path fill="#663300" d="M 144.941406 194.007812 L 165.507812 194.007812 L 165.507812 204.289062 L 144.941406 204.289062 Z M 144.941406 194.007812 " fill-opacity="1" fill-rule="evenodd"/></g><g clip-path="url(#7e21e4f290)"><path fill="#663300" d="M 155.226562 183.722656 L 175.792969 183.722656 L 175.792969 194.007812 L 155.226562 194.007812 Z M 155.226562 183.722656 " fill-opacity="1" fill-rule="evenodd"/></g><path fill="#f85041" d="M 156.261719 184.761719 L 174.753906 184.761719 L 174.753906 192.964844 L 156.261719 192.964844 Z M 156.261719 184.761719 " fill-opacity="1" fill-rule="evenodd"/><path fill="#e6bf5c" d="M 157.5625 185.339844 L 173.449219 185.339844 C 173.898438 185.339844 174.261719 185.707031 174.261719 186.15625 L 174.261719 187.074219 C 174.261719 187.523438 173.898438 187.886719 173.449219 187.886719 L 157.5625 187.886719 C 157.121094 187.886719 156.75 187.523438 156.75 187.074219 L 156.75 186.15625 C 156.75 185.707031 157.121094 185.339844 157.5625 185.339844 Z M 157.5625 185.339844 " fill-opacity="1" fill-rule="evenodd"/><g clip-path="url(#d28e7a8d10)"><path fill="#663300" d="M 164.355469 194.007812 L 184.921875 194.007812 L 184.921875 204.289062 L 164.355469 204.289062 Z M 164.355469 194.007812 " fill-opacity="1" fill-rule="evenodd"/></g><g clip-path="url(#5c51604e02)"><path fill="#663300" d="M 174.640625 183.722656 L 195.207031 183.722656 L 195.207031 194.007812 L 174.640625 194.007812 Z M 174.640625 183.722656 " fill-opacity="1" fill-rule="evenodd"/></g><path fill="#f85041" d="M 175.679688 184.761719 L 194.167969 184.761719 L 194.167969 192.964844 L 175.679688 192.964844 Z M 175.679688 184.761719 " fill-opacity="1" fill-rule="evenodd"/><path fill="#e6bf5c" d="M 176.980469 185.339844 L 192.867188 185.339844 C 193.316406 185.339844 193.679688 185.707031 193.679688 186.15625 L 193.679688 187.074219 C 193.679688 187.523438 193.316406 187.886719 192.867188 187.886719 L 176.980469 187.886719 C 176.535156 187.886719 176.167969 187.523438 176.167969 187.074219 L 176.167969 186.15625 C 176.167969 185.707031 176.535156 185.339844 176.980469 185.339844 Z M 176.980469 185.339844 " fill-opacity="1" fill-rule="evenodd"/><g clip-path="url(#25eddb07e2)"><path fill="#663300" d="M 184.039062 194.007812 L 204.605469 194.007812 L 204.605469 204.289062 L 184.039062 204.289062 Z M 184.039062 194.007812 " fill-opacity="1" fill-rule="evenodd"/></g><g clip-path="url(#6849ef3634)"><path fill="#663300" d="M 194.324219 183.722656 L 214.890625 183.722656 L 214.890625 194.007812 L 194.324219 194.007812 Z M 194.324219 183.722656 " fill-opacity="1" fill-rule="evenodd"/></g><path fill="#f85041" d="M 195.359375 184.761719 L 213.847656 184.761719 L 213.847656 192.964844 L 195.359375 192.964844 Z M 195.359375 184.761719 " fill-opacity="1" fill-rule="evenodd"/><path fill="#e6bf5c" d="M 196.660156 185.339844 L 212.546875 185.339844 C 212.996094 185.339844 213.359375 185.707031 213.359375 186.15625 L 213.359375 187.074219 C 213.359375 187.523438 212.996094 187.886719 212.546875 187.886719 L 196.660156 187.886719 C 196.21875 187.886719 195.847656 187.523438 195.847656 187.074219 L 195.847656 186.15625 C 195.847656 185.707031 196.21875 185.339844 196.660156 185.339844 Z M 196.660156 185.339844 " fill-opacity="1" fill-rule="evenodd"/><g clip-path="url(#dae0c46cd8)"><path fill="#663300" d="M 203.453125 194.007812 L 224.019531 194.007812 L 224.019531 204.289062 L 203.453125 204.289062 Z M 203.453125 194.007812 " fill-opacity="1" fill-rule="evenodd"/></g><g clip-path="url(#a8f261db33)"><path fill="#663300" d="M 213.738281 183.722656 L 234.304688 183.722656 L 234.304688 194.007812 L 213.738281 194.007812 Z M 213.738281 183.722656 " fill-opacity="1" fill-rule="evenodd"/></g><path fill="#f85041" d="M 214.773438 184.761719 L 233.265625 184.761719 L 233.265625 192.964844 L 214.773438 192.964844 Z M 214.773438 184.761719 " fill-opacity="1" fill-rule="evenodd"/><path fill="#e6bf5c" d="M 216.078125 185.339844 L 231.960938 185.339844 C 232.410156 185.339844 232.777344 185.707031 232.777344 186.15625 L 232.777344 187.074219 C 232.777344 187.523438 232.410156 187.886719 231.960938 187.886719 L 216.078125 187.886719 C 215.632812 187.886719 215.265625 187.523438 215.265625 187.074219 L 215.265625 186.15625 C 215.265625 185.707031 215.632812 185.339844 216.078125 185.339844 Z M 216.078125 185.339844 " fill-opacity="1" fill-rule="evenodd"/><g clip-path="url(#e3cde1e5d7)"><path fill="#663300" d="M 223.136719 194.007812 L 243.703125 194.007812 L 243.703125 204.289062 L 223.136719 204.289062 Z M 223.136719 194.007812 " fill-opacity="1" fill-rule="evenodd"/></g><g clip-path="url(#61dc362c9f)"><path fill="#663300" d="M 233.421875 183.722656 L 253.988281 183.722656 L 253.988281 194.007812 L 233.421875 194.007812 Z M 233.421875 183.722656 " fill-opacity="1" fill-rule="evenodd"/></g><path fill="#f85041" d="M 234.457031 184.761719 L 252.945312 184.761719 L 252.945312 192.964844 L 234.457031 192.964844 Z M 234.457031 184.761719 " fill-opacity="1" fill-rule="evenodd"/><path fill="#e6bf5c" d="M 235.757812 185.339844 L 251.644531 185.339844 C 252.09375 185.339844 252.457031 185.707031 252.457031 186.15625 L 252.457031 187.074219 C 252.457031 187.523438 252.09375 187.886719 251.644531 187.886719 L 235.757812 187.886719 C 235.3125 187.886719 234.945312 187.523438 234.945312 187.074219 L 234.945312 186.15625 C 234.945312 185.707031 235.3125 185.339844 235.757812 185.339844 Z M 235.757812 185.339844 " fill-opacity="1" fill-rule="evenodd"/><g clip-path="url(#9a8627ead3)"><path fill="#663300" d="M 242.554688 194.007812 L 263.121094 194.007812 L 263.121094 204.289062 L 242.554688 204.289062 Z M 242.554688 194.007812 " fill-opacity="1" fill-rule="evenodd"/></g><g clip-path="url(#fb1d25b733)"><path fill="#663300" d="M 252.839844 183.722656 L 273.40625 183.722656 L 273.40625 194.007812 L 252.839844 194.007812 Z M 252.839844 183.722656 " fill-opacity="1" fill-rule="evenodd"/></g><g clip-path="url(#b5fb2eb3fd)"><path fill="#f85041" d="M 253.875 184.761719 L 272.363281 184.761719 L 272.363281 192.964844 L 253.875 192.964844 Z M 253.875 184.761719 " fill-opacity="1" fill-rule="evenodd"/></g><g clip-path="url(#54e3b9bf3f)"><path fill="#e6bf5c" d="M 255.175781 185.339844 L 271.0625 185.339844 C 271.511719 185.339844 271.875 185.707031 271.875 186.15625 L 271.875 187.074219 C 271.875 187.523438 271.511719 187.886719 271.0625 187.886719 L 255.175781 187.886719 C 254.734375 187.886719 254.363281 187.523438 254.363281 187.074219 L 254.363281 186.15625 C 254.363281 185.707031 254.734375 185.339844 255.175781 185.339844 Z M 255.175781 185.339844 " fill-opacity="1" fill-rule="evenodd"/></g><g clip-path="url(#8d77a222ca)"><path fill="#663300" d="M 262.234375 194.007812 L 282.796875 194.007812 L 282.796875 204.289062 L 262.234375 204.289062 Z M 262.234375 194.007812 " fill-opacity="1" fill-rule="evenodd"/></g></svg>